<?xml version="1.0" encoding="utf-8"?>
<!-- Generator: Adobe Illustrator 15.0.0, SVG Export Plug-In . SVG Version: 6.00 Build 0)  -->
<!DOCTYPE svg PUBLIC "-//W3C//DTD SVG 1.1//EN" "http://www.w3.org/Graphics/SVG/1.1/DTD/svg11.dtd">
<svg version="1.1" id="Layer_1" xmlns="http://www.w3.org/2000/svg" xmlns:xlink="http://www.w3.org/1999/xlink" x="0px" y="0px"
	 width="64px" height="64px" viewBox="0 0 64 64" enable-background="new 0 0 64 64" xml:space="preserve">
<radialGradient id="SVGID_1_" cx="25.9937" cy="-20.6729" r="50.5287" gradientTransform="matrix(0.6165 -0.7874 0.7874 0.6165 7.8137 84.0428)" gradientUnits="userSpaceOnUse">
	<stop  offset="0.073" style="stop-color:#EACC7B"/>
	<stop  offset="0.184" style="stop-color:#ECAA59"/>
	<stop  offset="0.307" style="stop-color:#EF802E"/>
	<stop  offset="0.358" style="stop-color:#EF6D3A"/>
	<stop  offset="0.46" style="stop-color:#F04B50"/>
	<stop  offset="0.516" style="stop-color:#F03E58"/>
	<stop  offset="0.689" style="stop-color:#DB359E"/>
	<stop  offset="0.724" style="stop-color:#CE37A4"/>
	<stop  offset="0.789" style="stop-color:#AC3CB4"/>
	<stop  offset="0.877" style="stop-color:#7544CF"/>
	<stop  offset="0.98" style="stop-color:#2B4FF2"/>
</radialGradient>
<circle fill="url(#SVGID_1_)" cx="32" cy="34.001" r="23.997"/>
<path fill="#FFFFFF" d="M32,20c4.6,0,5.1,0,6.9,0.1c1.699,0.1,2.6,0.4,3.199,0.6c0.801,0.3,1.4,0.7,2,1.3c0.601,0.6,1,1.2,1.301,2
	c0.199,0.6,0.5,1.5,0.6,3.2c0,1.7,0,2.2,0,6.8c0,4.6,0,5.1-0.1,6.9C45.8,42.6,45.5,43.5,45.3,44.1c-0.3,0.801-0.7,1.4-1.3,2
	c-0.6,0.601-1.2,1-2,1.301c-0.6,0.199-1.5,0.5-3.2,0.6c-1.7,0-2.2,0-6.8,0c-4.6,0-5.1,0-6.9-0.1c-1.7-0.101-2.6-0.4-3.2-0.601
	c-0.8-0.3-1.4-0.7-2-1.3s-1-1.2-1.3-2c-0.2-0.6-0.5-1.5-0.6-3.2c0-1.7,0-2.2,0-6.8c0-4.6,0-5.1,0.1-6.9c0.1-1.7,0.4-2.6,0.6-3.2
	c0.3-0.8,0.7-1.4,1.3-2s1.2-1,2-1.3c0.6-0.2,1.5-0.5,3.2-0.6C26.9,20,27.4,20,32,20 M32,17c-4.6,0-5.2,0-7,0.1s-3,0.4-4.1,0.8
	s-2.1,1-3,2s-1.5,1.9-2,3c-0.4,1.1-0.7,2.3-0.8,4.1S15,29.4,15,34c0,4.6,0,5.2,0.1,7s0.4,3,0.8,4.1c0.4,1.101,1,2.101,2,3
	c0.9,0.9,1.9,1.5,3,2c1.1,0.4,2.3,0.7,4.1,0.801c1.8,0.1,2.4,0.1,7,0.1c4.6,0,5.2,0,7-0.1c1.8-0.101,3-0.4,4.1-0.801
	c1.101-0.399,2.101-1,3-2c0.9-0.899,1.5-1.899,2-3c0.4-1.1,0.7-2.3,0.801-4.1c0.1-1.8,0.1-2.4,0.1-7c0-4.6,0-5.2-0.1-7
	c-0.101-1.8-0.4-3-0.801-4.1c-0.399-1.1-1-2.1-2-3s-1.899-1.5-3-2c-1.1-0.4-2.3-0.7-4.1-0.8S36.6,17,32,17L32,17z"/>
<path fill="#FFFFFF" d="M32,25c-5,0-9,4-9,9s4,9,9,9s9-4,9-9S37,25,32,25z M32,40c-3.3,0-6-2.7-6-6s2.7-6,6-6s6,2.7,6,6
	S35.3,40,32,40z"/>
<circle fill="#FFFFFF" cx="41" cy="25" r="2"/>
</svg>
