<svg id="Layer_1" data-name="Layer 1" xmlns="http://www.w3.org/2000/svg" viewBox="0 0 124.39 108.78"><defs><style>.cls-1{fill:#fed60c;}</style></defs><title>quotation</title><path class="cls-1" d="M106.72,30.1a58.92,58.92,0,0,1,12.67,37.21q0,17-8.94,26.73t-21.53,9.74A24.14,24.14,0,0,1,71.2,96.46a23.31,23.31,0,0,1-7.33-17,22.3,22.3,0,0,1,6.37-15.82,20,20,0,0,1,15-6.74A20.59,20.59,0,0,1,95.81,59.4a6.11,6.11,0,0,0,2.63,1,2.83,2.83,0,0,0,2-1.17,6.13,6.13,0,0,0,1-3.81q0-12.15-7.69-23.8t-24.68-19V6.22Q94.05,13.84,106.72,30.1Z"/><path class="cls-1" d="M48.72,30.1A58.92,58.92,0,0,1,61.39,67.31q0,17-8.94,26.73t-21.53,9.74A24.14,24.14,0,0,1,13.2,96.46a23.31,23.31,0,0,1-7.33-17,22.3,22.3,0,0,1,6.37-15.82,20,20,0,0,1,15-6.74A20.59,20.59,0,0,1,37.81,59.4a6.11,6.11,0,0,0,2.63,1,2.83,2.83,0,0,0,2.05-1.17,6.13,6.13,0,0,0,1-3.81q0-12.15-7.69-23.8t-24.68-19V6.22Q36.05,13.84,48.72,30.1Z"/></svg>