<svg id="Layer_1" data-name="Layer 1" xmlns="http://www.w3.org/2000/svg" viewBox="0 0 49 48.32"><defs><style>.cls-1{fill:#6e6e6e;}</style></defs><title>cube</title><path class="cls-1" d="M6,43.32H33.23V16.09H6ZM7,17.09H32.23V42.32H7Z"/><polygon class="cls-1" points="12.18 12.45 9.11 9.59 30.12 9.59 27.05 12.45 27.73 13.18 32.13 9.09 27.73 5 27.05 5.73 30.12 8.59 9.11 8.59 12.18 5.73 11.5 5 7.1 9.09 11.5 13.18 12.18 12.45"/><polygon class="cls-1" points="41.41 39.74 41.41 18.73 44.27 21.8 45 21.12 40.91 16.72 36.82 21.12 37.55 21.8 40.41 18.72 40.41 39.74 37.55 36.66 36.82 37.35 40.91 41.74 45 37.35 44.27 36.66 41.41 39.74"/></svg>