<svg id="Слой_1" data-name="Слой 1" xmlns="http://www.w3.org/2000/svg" viewBox="0 0 833 835"><title>Монтажная область 1</title><path d="M523.13,510.2l18.24,18.25L324.23,745.58,306,727.34,523.13,510.2Z"/><path d="M165.2,586.62,147,568.37,364.1,351.24l18.24,18.24L165.2,586.62Z"/><path d="M126.15,547.57,87.23,508.65,304.36,291.51l38.92,38.92L126.15,547.57Z"/><path d="M285.06,706.45l-38.93-38.92L463.27,450.39l38.92,38.92Z"/><path d="M225.26,646.67l-38.92-38.92L403.47,390.61l38.93,38.92Z"/><path d="M816.32,327.63l-67.58-225.3,73.52-73.52A12.9,12.9,0,0,0,804,10.57L730.52,84.06,505.2,16.5a12.9,12.9,0,0,0-12.83,3.24L11.14,501a12.89,12.89,0,0,0,0,18.24L313.62,821.68a12.89,12.89,0,0,0,18.24,0L813.09,340.46a12.9,12.9,0,0,0,3.23-12.83ZM607.84,225a12.9,12.9,0,0,0,18.25,0l29.41-29.41a43.5,43.5,0,1,1-18.24-18.25l-29.42,29.41a12.92,12.92,0,0,0,0,18.25ZM322.74,794.32,38.51,510.09,505.17,43.43,709.8,104.78,656,158.56a69.33,69.33,0,1,0,18.24,18.25L728,123.06l61.38,204.6L322.74,794.32Z"/></svg>