<svg id="Layer_1" data-name="Layer 1" xmlns="http://www.w3.org/2000/svg" viewBox="0 0 43.68 50.9"><defs><style>.cls-1{fill:#6e6e6e;}</style></defs><title>pay</title><path class="cls-1" d="M34.4,18.92a3.09,3.09,0,1,1,3.09-3.08A3.08,3.08,0,0,1,34.4,18.92Zm0-5.17a2.09,2.09,0,1,0,2.09,2.09A2.09,2.09,0,0,0,34.4,13.75Z"/><path class="cls-1" d="M34.4,19.17a3.34,3.34,0,1,1,3.34-3.33A3.34,3.34,0,0,1,34.4,19.17Zm0-6.17a2.84,2.84,0,1,0,2.84,2.84A2.84,2.84,0,0,0,34.4,13Zm0,5.17a2.34,2.34,0,1,1,2.34-2.33A2.33,2.33,0,0,1,34.4,18.17Zm0-4.17a1.84,1.84,0,1,0,1.84,1.84A1.84,1.84,0,0,0,34.4,14Z"/><path class="cls-1" d="M28.4,34.89a2,2,0,1,0,2.05,2A2,2,0,0,0,28.4,34.89Z"/><path class="cls-1" d="M41.87,14,28.58,1.61a1.63,1.63,0,0,0-2.31.1L8.33,21,3.48,22.59A4.15,4.15,0,0,0,1,26.48h.05a3,3,0,0,0,0,.43V47a3.19,3.19,0,0,0,3.19,3.19H31.73A3.19,3.19,0,0,0,34.91,47v-20a3.18,3.18,0,0,0-.86-2.17l7.88-8.48A1.63,1.63,0,0,0,41.87,14ZM32.71,6.82,17,23.72H12L30,4.32ZM27,2.39a.65.65,0,0,1,.9-.05l1.39,1.3L10.63,23.72H7.18ZM3.79,23.54l3.14-1-1.12,1.2H4.22a3.32,3.32,0,0,0-1.06.19A2,2,0,0,1,3.79,23.54ZM33.91,47a2.19,2.19,0,0,1-2.18,2.19H4.22A2.19,2.19,0,0,1,2,47v-20a2.19,2.19,0,0,1,2.19-2.19H31.73a2.19,2.19,0,0,1,2.18,2.19ZM41.2,15.58l-7.94,8.55a3.21,3.21,0,0,0-1.53-.41H18.37L33.44,7.5l7.74,7.19A.62.62,0,0,1,41.2,15.58Z"/><path class="cls-1" d="M31.73,50.4H4.22A3.44,3.44,0,0,1,.78,47v-20a2.46,2.46,0,0,1,0-.28l0-.15A4.41,4.41,0,0,1,3.4,22.35L8.19,20.8,26.09,1.54a1.88,1.88,0,0,1,2.66-.12L42,13.77a1.88,1.88,0,0,1,.59,1.3,1.94,1.94,0,0,1-.51,1.36l-7.73,8.32a3.42,3.42,0,0,1,.77,2.16V47A3.44,3.44,0,0,1,31.73,50.4ZM1.28,26.23h0l0,.29v.08a1.55,1.55,0,0,0,0,.31V47A2.94,2.94,0,0,0,4.22,49.9H31.73A2.94,2.94,0,0,0,34.66,47v-20a2.93,2.93,0,0,0-.79-2l-.16-.17,8-8.65a1.38,1.38,0,0,0,.38-1,1.4,1.4,0,0,0-.43-.95L28.41,1.79a1.4,1.4,0,0,0-2,.09l-18,19.35-.06,0L3.56,22.83A3.84,3.84,0,0,0,1.28,26.23ZM31.73,49.4H4.22A2.44,2.44,0,0,1,1.78,47v-20a2.44,2.44,0,0,1,2.44-2.44H31.73a2.43,2.43,0,0,1,2.43,2.44V47A2.44,2.44,0,0,1,31.73,49.4ZM4.22,25a1.94,1.94,0,0,0-1.94,1.94V47A1.94,1.94,0,0,0,4.22,48.9H31.73A1.93,1.93,0,0,0,33.66,47v-20A1.93,1.93,0,0,0,31.73,25ZM2,24.6l1-.87a2.11,2.11,0,0,1,.72-.43L7.77,22,5.92,24H4.22a2.91,2.91,0,0,0-1,.18Zm2.85-1.13H5.7l.39-.41Zm28.49,1-.17-.09A2.93,2.93,0,0,0,31.73,24H17.79L33.43,7.14l7.92,7.37a.83.83,0,0,1,.28.6.85.85,0,0,1-.25.64Zm-14.37-1H31.73a3.34,3.34,0,0,1,1.47.35L41,15.41a.44.44,0,0,0,.11-.29.42.42,0,0,0-.12-.25l-7.55-7Zm-1.83.5H11.42L30,4,33.07,6.8Zm-4.54-.5h4.32L32.36,6.83,30,4.67Zm-1.83.5H6.61L26.82,2.22a.89.89,0,0,1,1.25-.06l1.58,1.46Zm-3-.5h2.77L28.94,3.65,27.73,2.52a.38.38,0,0,0-.54,0Z"/></svg>