<svg xmlns="http://www.w3.org/2000/svg" viewBox="0 0 18.37 10.48"><defs><style>.cls-1{fill:#fff;fill-rule:evenodd;}</style></defs><title>vk</title><g id="Слой_2" data-name="Слой 2"><g id="Слой_1-2" data-name="Слой 1"><path id="vk_alt" class="cls-1" d="M9,10.44h1.1a1,1,0,0,0,.5-.22.85.85,0,0,0,.15-.48s0-1.48.66-1.7,1.54,1.43,2.46,2.06a1.7,1.7,0,0,0,1.22.37l2.45,0s1.29-.08.68-1.09a8.3,8.3,0,0,0-1.83-2.11c-1.54-1.43-1.33-1.2.52-3.67C18,2.07,18.48,1.15,18.34.76s-1-.28-1-.28L14.62.5a.63.63,0,0,0-.36.06.74.74,0,0,0-.24.3A16.5,16.5,0,0,1,13,3c-1.23,2.09-1.73,2.2-1.93,2.07-.47-.3-.35-1.21-.35-1.86,0-2,.31-2.87-.6-3.09A4.89,4.89,0,0,0,8.83,0,6,6,0,0,0,6.54.24C6.23.39,6,.73,6.13.75A1.25,1.25,0,0,1,7,1.16a2.7,2.7,0,0,1,.27,1.25s.16,2.39-.38,2.68c-.37.2-.88-.21-2-2.1a18,18,0,0,1-1-2.05A1,1,0,0,0,3.65.63,1.16,1.16,0,0,0,3.22.46L.6.48S.2.49.06.66s0,.47,0,.47S2.1,5.94,4.43,8.36A6.34,6.34,0,0,0,9,10.44Z"/></g></g></svg>