<svg xmlns="http://www.w3.org/2000/svg" viewBox="0 0 17.77 17.91"><defs><style>.cls-1{fill:#fff;fill-rule:evenodd;}</style></defs><title>whatsapp</title><g id="Слой_2" data-name="Слой 2"><g id="Слой_1-2" data-name="Слой 1"><g id="whatsapp"><path class="cls-1" d="M9,0A8.73,8.73,0,0,0,1.57,13.23L0,17.91l4.83-1.55A8.72,8.72,0,1,0,9,0ZM9,16a7.21,7.21,0,0,1-4-1.2l-2.79.9L3.17,13A7.26,7.26,0,1,1,9,16Zm4.09-5.28c-.21-.12-1.29-.7-1.49-.78s-.35-.12-.51.1-.6.7-.73.84-.27.16-.49,0A6.16,6.16,0,0,1,8.16,9.73,6.7,6.7,0,0,1,7,8.14c-.12-.23,0-.34.12-.45l.35-.38A1.69,1.69,0,0,0,7.68,7a.41.41,0,0,0,0-.39c0-.12-.46-1.23-.63-1.68s-.35-.39-.48-.39l-.43,0a.86.86,0,0,0-.6.26,2.47,2.47,0,0,0-.85,1.83,4.38,4.38,0,0,0,.82,2.33,9.16,9.16,0,0,0,3.68,3.51c2.23,1,2.24.68,2.65.66a2.25,2.25,0,0,0,1.54-1,1.83,1.83,0,0,0,.17-1C13.5,10.89,13.35,10.82,13.13,10.7Z"/></g></g></g></svg>