<?xml version="1.0" standalone="no"?>
<!DOCTYPE svg PUBLIC "-//W3C//DTD SVG 20010904//EN"
 "http://www.w3.org/TR/2001/REC-SVG-20010904/DTD/svg10.dtd">
<svg version="1.0" xmlns="http://www.w3.org/2000/svg"
 width="1176.000000pt" height="1176.000000pt" viewBox="0 0 1176.000000 1176.000000"
 preserveAspectRatio="xMidYMid meet">
<metadata>
Created by potrace 1.11, written by Peter Selinger 2001-2013
</metadata>
<g transform="translate(0.000000,1176.000000) scale(0.100000,-0.100000)"
fill="#000000" stroke="none">
<path d="M5845 8299 c-27 -21 -61 -47 -75 -56 -14 -10 -27 -20 -30 -23 -3 -3
-52 -41 -110 -85 -58 -44 -106 -83 -108 -87 -2 -4 -10 -8 -17 -8 -7 0 -15 -3
-17 -7 -3 -8 -26 -26 -318 -247 -102 -77 -206 -156 -231 -175 -25 -20 -58 -45
-73 -56 -16 -11 -54 -40 -85 -65 -32 -25 -85 -65 -119 -90 -34 -24 -62 -48
-62 -52 0 -5 -6 -8 -12 -8 -7 0 -30 -16 -52 -35 -21 -19 -41 -35 -45 -35 -4 0
-16 -8 -27 -18 -10 -10 -84 -67 -164 -127 -80 -60 -147 -111 -150 -115 -3 -3
-21 -17 -40 -30 -19 -14 -42 -30 -50 -37 -8 -7 -51 -39 -95 -72 -44 -34 -84
-64 -90 -69 -5 -4 -25 -19 -44 -32 -19 -14 -42 -32 -52 -40 -23 -19 -31 -26
-109 -83 -36 -26 -74 -56 -85 -66 -11 -10 -33 -26 -50 -37 -16 -10 -37 -25
-45 -34 -8 -8 -25 -22 -37 -30 -28 -19 -456 -343 -463 -350 -3 -3 -59 -46
-125 -95 -66 -49 -122 -92 -125 -95 -3 -3 -70 -55 -150 -115 -80 -60 -149
-113 -155 -117 -15 -13 -153 -117 -305 -231 -74 -56 -137 -104 -140 -107 -3
-3 -68 -53 -145 -110 -77 -58 -151 -115 -165 -127 -14 -13 -28 -23 -31 -23 -3
0 -15 -8 -26 -17 -11 -10 -33 -28 -49 -40 -16 -12 -90 -68 -164 -124 -74 -56
-148 -113 -165 -126 -42 -33 -46 -36 -85 -63 -19 -13 -37 -27 -40 -30 -3 -3
-25 -21 -50 -40 -98 -76 -90 -77 48 -10 56 28 105 50 107 50 4 0 75 32 190 85
43 20 109 48 190 80 39 15 88 35 110 45 106 46 521 198 585 215 17 4 75 24
105 36 30 11 179 59 201 64 10 2 70 20 132 39 62 19 114 34 115 34 1 1 9 3 17
5 8 3 26 8 40 11 14 3 104 27 200 52 96 25 186 48 199 50 12 3 51 11 85 19 72
16 113 25 141 30 41 6 143 35 180 51 36 15 236 160 243 176 2 5 10 8 17 8 7 0
15 4 17 8 2 7 60 51 173 134 5 4 24 18 40 31 17 14 73 56 125 95 52 39 102 78
111 87 9 8 20 15 25 15 5 0 17 8 26 18 22 23 46 42 53 42 3 0 16 9 28 20 19
18 323 248 401 305 16 11 33 25 40 30 16 14 100 77 126 95 13 8 30 22 39 31
16 16 275 212 314 239 12 8 47 34 77 57 74 58 70 55 115 88 22 16 71 54 109
84 77 62 124 72 163 35 29 -27 59 -51 70 -55 6 -2 27 -17 47 -34 68 -55 113
-90 136 -105 12 -8 28 -20 34 -25 6 -6 56 -44 111 -85 55 -41 102 -77 105 -80
3 -4 43 -35 90 -70 47 -35 87 -68 88 -72 2 -4 8 -8 14 -8 9 0 103 -71 139
-105 9 -8 21 -15 27 -15 5 0 12 -4 14 -8 2 -5 35 -32 73 -61 39 -30 72 -57 73
-62 2 -5 8 -9 12 -9 9 0 206 -147 244 -182 11 -10 25 -18 32 -18 7 0 14 -4 16
-9 2 -6 66 -58 143 -116 77 -58 153 -116 169 -128 16 -12 34 -26 41 -32 6 -5
18 -14 27 -20 9 -5 95 -71 192 -145 177 -135 228 -168 276 -177 35 -6 250 -52
280 -60 14 -4 30 -7 35 -8 6 -1 25 -5 42 -9 18 -4 35 -7 38 -7 2 0 19 -5 37
-10 18 -6 85 -24 148 -40 148 -38 145 -37 145 -39 0 -1 7 -3 15 -5 31 -6 107
-27 165 -45 33 -10 101 -30 150 -45 119 -36 457 -146 470 -154 6 -3 15 -6 20
-7 11 -2 116 -40 150 -54 11 -4 36 -13 55 -20 19 -7 54 -21 77 -31 24 -11 46
-19 49 -19 8 0 385 -155 449 -185 181 -84 229 -105 241 -105 8 0 14 -4 14 -8
0 -5 18 -16 40 -25 48 -19 52 -7 8 24 -18 13 -35 26 -38 29 -3 3 -32 25 -65
50 -33 24 -64 48 -70 52 -5 5 -46 35 -90 69 -44 33 -87 65 -95 72 -8 7 -69 53
-135 102 -66 49 -125 94 -131 100 -7 5 -24 19 -39 29 -24 18 -49 38 -82 66 -7
5 -17 10 -23 10 -5 0 -10 3 -10 8 0 4 -23 23 -50 42 -27 19 -50 38 -50 43 0 4
-5 7 -11 7 -6 0 -28 14 -48 30 -20 17 -40 34 -46 38 -35 25 -211 158 -215 162
-3 3 -23 18 -45 35 -22 16 -44 33 -50 37 -5 5 -32 25 -60 46 -27 20 -55 42
-61 47 -6 6 -22 17 -34 25 -12 8 -28 20 -34 25 -17 15 -206 158 -225 170 -9 6
-18 12 -21 15 -3 3 -34 27 -70 55 -36 27 -74 58 -84 67 -11 10 -23 18 -26 18
-4 0 -16 8 -28 18 -11 9 -72 57 -135 105 -93 71 -117 94 -123 120 -10 44 -12
678 -3 698 5 9 5 19 2 23 -4 4 -7 172 -8 374 l0 367 -562 2 -563 1 0 -79 c-1
-43 -1 -182 -1 -309 0 -192 -3 -230 -15 -230 -8 0 -14 4 -14 9 0 4 -17 20 -37
33 -21 14 -67 48 -103 76 -81 64 -83 65 -205 157 -55 42 -107 81 -115 88 -9 7
-108 82 -220 167 -113 85 -210 159 -217 165 -6 5 -36 28 -67 50 -31 22 -56 43
-56 47 0 4 -6 8 -14 8 -8 0 -16 3 -18 8 -1 4 -30 27 -63 52 -33 24 -66 50 -75
56 -8 7 -37 29 -65 50 -96 71 -210 159 -223 172 -18 17 -21 16 -77 -29z"/>
<path d="M5687 5034 c-1 -1 -90 -5 -197 -8 -107 -4 -224 -9 -260 -11 -141 -9
-239 -16 -271 -19 -19 -3 -70 -7 -114 -11 -44 -3 -93 -8 -110 -10 -16 -2 -57
-7 -90 -10 -33 -3 -73 -8 -90 -10 -16 -3 -52 -7 -80 -10 -27 -2 -61 -6 -75 -9
-14 -2 -44 -7 -67 -10 -24 -3 -60 -8 -80 -11 -21 -3 -51 -8 -68 -10 -16 -2
-30 -4 -30 -5 0 -1 -16 -3 -35 -6 -19 -2 -47 -6 -62 -9 -16 -3 -43 -7 -60 -10
-18 -3 -44 -8 -58 -11 -14 -3 -38 -8 -55 -11 -39 -6 -58 -9 -125 -23 -30 -6
-68 -14 -85 -16 -16 -3 -57 -11 -90 -19 -33 -8 -73 -16 -90 -20 -16 -3 -39 -7
-50 -10 -11 -3 -67 -16 -125 -30 -58 -14 -112 -27 -120 -28 -8 -2 -35 -10 -60
-17 -25 -7 -48 -13 -52 -12 -4 1 -19 -3 -33 -8 -14 -5 -36 -12 -48 -14 -12 -3
-49 -13 -82 -22 -33 -9 -64 -17 -70 -19 -5 -1 -17 -5 -25 -8 -8 -3 -49 -16
-90 -27 -107 -31 -424 -133 -490 -157 -8 -3 -49 -18 -90 -33 -138 -50 -225
-82 -245 -91 -11 -4 -72 -29 -135 -54 -63 -25 -134 -55 -157 -65 -24 -11 -45
-20 -48 -20 -9 0 -258 -113 -415 -188 -52 -25 -97 -46 -100 -47 -5 -1 -143
-70 -300 -151 -41 -21 -77 -41 -80 -44 -3 -3 -30 -18 -60 -33 -30 -16 -62 -32
-70 -37 -19 -12 -256 -148 -290 -167 -57 -32 -155 -93 -150 -93 3 0 21 5 40
11 19 5 42 12 50 14 8 2 65 17 125 35 61 17 121 33 133 36 13 3 43 11 65 19
23 8 51 15 63 15 11 0 24 3 28 7 3 4 14 8 24 9 9 1 53 12 97 24 44 12 88 24
97 26 10 2 27 6 38 9 11 3 28 7 37 9 10 2 47 12 83 21 36 9 72 18 80 20 8 2
71 17 140 34 69 16 136 32 150 35 14 2 43 9 65 14 22 6 51 13 65 16 14 2 77
16 140 30 63 14 126 27 140 29 14 3 36 8 50 11 14 3 36 8 50 10 35 6 190 37
310 61 14 3 43 8 65 11 22 3 47 7 55 10 8 3 33 8 55 10 22 3 46 7 54 10 8 3
30 7 50 10 20 3 63 10 96 16 33 5 71 12 85 14 14 2 41 7 60 11 19 3 51 7 70 8
19 2 42 5 50 8 8 3 67 13 130 22 63 9 126 18 140 20 14 2 45 6 70 10 25 3 56
8 70 10 14 2 50 7 80 10 30 4 66 8 80 10 14 3 50 7 80 10 30 3 65 7 77 9 12 3
50 7 85 11 87 8 134 13 198 21 30 3 69 8 85 9 31 3 124 12 205 20 25 2 81 7
125 10 44 4 100 8 125 10 238 18 327 24 465 30 61 2 110 5 110 6 0 3 535 21
560 19 11 -1 25 -1 30 -1 143 6 215 5 215 -4 0 -7 3 -7 8 0 8 12 482 13 501 1
6 -4 11 -2 11 4 0 6 4 9 9 5 6 -3 90 -8 188 -10 269 -8 406 -13 496 -19 45 -4
127 -8 182 -11 55 -2 116 -7 135 -9 19 -3 80 -8 135 -11 100 -5 184 -12 260
-21 22 -2 69 -6 105 -9 36 -2 79 -6 95 -9 17 -2 64 -8 105 -11 41 -4 89 -9
105 -11 17 -2 53 -6 80 -9 28 -4 64 -8 81 -10 16 -2 58 -6 93 -10 34 -4 72 -8
84 -11 12 -2 42 -6 67 -9 46 -6 106 -14 150 -20 14 -2 75 -11 135 -19 61 -9
121 -18 135 -21 14 -3 43 -7 65 -10 22 -3 51 -7 65 -9 14 -3 43 -7 65 -11 38
-5 188 -31 230 -39 11 -2 40 -7 65 -11 51 -8 74 -12 110 -20 14 -2 39 -7 55
-10 17 -3 41 -7 55 -10 14 -3 40 -8 59 -11 36 -6 214 -42 242 -48 9 -3 34 -7
55 -10 22 -4 56 -11 77 -17 21 -5 54 -12 74 -15 19 -2 38 -6 42 -9 4 -2 21 -7
37 -9 40 -8 51 -10 204 -45 168 -39 170 -40 200 -47 14 -3 34 -7 45 -9 11 -3
65 -16 120 -30 55 -14 109 -28 120 -30 63 -14 193 -48 210 -55 11 -5 38 -12
60 -16 50 -9 44 -8 86 -22 20 -7 46 -14 58 -17 26 -5 210 -55 231 -63 8 -3 20
-6 25 -7 6 -2 34 -10 64 -19 30 -9 57 -16 60 -16 11 0 -104 69 -116 70 -6 0
-13 4 -15 8 -4 11 -291 175 -488 279 -168 89 -603 303 -616 303 -1 0 -31 13
-66 30 -65 30 -119 53 -128 54 -3 1 -21 9 -40 18 -19 9 -71 31 -115 48 -44 17
-93 38 -110 45 -36 16 -208 81 -325 123 -204 74 -263 94 -274 96 -6 1 -15 4
-21 7 -5 3 -32 12 -60 19 -27 7 -55 17 -60 21 -6 4 -22 10 -35 12 -14 2 -32 7
-40 10 -14 6 -276 84 -310 93 -14 3 -121 31 -145 38 -5 1 -19 5 -30 9 -11 3
-31 8 -45 11 -14 3 -61 14 -105 26 -44 11 -93 22 -108 25 -16 3 -66 14 -111
25 -119 28 -194 44 -256 55 -19 3 -67 13 -107 21 -39 7 -89 17 -110 20 -42 7
-66 12 -73 14 -3 1 -8 2 -11 2 -4 -1 -33 3 -65 9 -33 5 -75 12 -94 14 -19 3
-44 7 -55 10 -11 2 -47 7 -79 11 -33 3 -69 8 -80 11 -12 2 -37 6 -56 8 -19 2
-60 7 -90 10 -30 4 -69 9 -86 10 -18 2 -54 6 -80 10 -63 8 -132 14 -214 20
-36 3 -92 7 -125 9 -258 21 -447 28 -783 30 -150 1 -274 1 -275 0z"/>
</g>
</svg>
