<?xml version="1.0" standalone="no"?>
<!DOCTYPE svg PUBLIC "-//W3C//DTD SVG 20010904//EN"
 "http://www.w3.org/TR/2001/REC-SVG-20010904/DTD/svg10.dtd">
<svg version="1.0" xmlns="http://www.w3.org/2000/svg"
 width="1088.000000pt" height="1088.000000pt" viewBox="0 0 1088.000000 1088.000000"
 preserveAspectRatio="xMidYMid meet">
<metadata>
Created by potrace 1.11, written by Peter Selinger 2001-2013
</metadata>
<g transform="translate(0.000000,1088.000000) scale(0.100000,-0.100000)"
fill="#000000" stroke="none">
<path d="M7266 10803 c-2 -2 -52 -11 -97 -17 -19 -3 -56 -10 -84 -16 -27 -7
-61 -14 -75 -16 -68 -14 -366 -118 -384 -135 -6 -5 -15 -9 -22 -9 -6 0 -43
-18 -83 -39 -39 -22 -71 -37 -71 -35 0 3 -6 0 -12 -6 -7 -6 -53 -35 -103 -66
-49 -30 -107 -68 -127 -85 -20 -16 -42 -29 -47 -29 -6 0 -11 -3 -11 -7 0 -5
-28 -30 -63 -58 -57 -46 -282 -265 -271 -265 2 0 -10 -16 -28 -36 -18 -20 -57
-68 -86 -107 -29 -40 -59 -80 -67 -90 -8 -9 -15 -22 -15 -27 0 -6 -4 -10 -10
-10 -5 0 -10 -5 -10 -10 0 -6 -16 -36 -36 -67 -41 -65 -124 -226 -124 -242 0
-6 -4 -11 -10 -11 -5 0 -10 -7 -10 -16 0 -8 -11 -39 -24 -67 -23 -52 -61 -160
-57 -165 1 -1 -6 -16 -14 -32 -9 -17 -13 -30 -11 -30 3 0 1 -11 -4 -25 -5 -14
-12 -36 -14 -48 -3 -12 -8 -33 -11 -47 -3 -14 -8 -35 -11 -47 -2 -13 -7 -35
-10 -50 -3 -16 -7 -39 -9 -53 -2 -14 -6 -47 -10 -75 -4 -27 -9 -63 -11 -80 -6
-43 -12 -353 -7 -379 5 -24 3 -24 168 -12 100 7 156 15 250 35 99 22 180 44
190 53 5 4 17 8 26 8 9 0 43 12 75 26 33 14 60 25 62 25 1 -1 37 15 80 36 42
21 80 36 85 35 4 -1 7 1 7 6 0 4 17 16 38 27 33 18 60 35 126 78 10 6 24 18
32 25 7 6 16 12 19 12 4 0 22 12 40 28 18 15 56 47 85 72 93 79 176 166 260
275 30 39 59 75 65 82 5 7 15 18 21 25 6 8 19 27 30 43 10 17 22 35 27 40 18
24 57 86 57 92 0 4 6 14 14 22 14 16 156 286 155 296 0 3 7 20 15 38 23 53 49
126 45 130 -2 2 1 10 7 18 7 8 15 30 19 49 4 19 10 40 13 45 4 6 7 15 8 20 1
6 9 37 18 70 9 33 19 74 22 90 8 43 12 60 14 60 1 0 3 9 4 20 3 26 17 112 21
133 15 79 28 442 17 484 -3 12 -13 16 -39 15 -19 -1 -36 -3 -37 -4z"/>
<path d="M3397 7963 c-2 -1 -23 -5 -48 -7 -24 -3 -46 -6 -49 -7 -6 -2 -14 -3
-80 -13 -30 -4 -82 -14 -115 -23 -64 -16 -85 -21 -124 -29 -14 -3 -29 -8 -35
-12 -6 -3 -19 -8 -29 -9 -103 -16 -561 -236 -625 -300 -7 -7 -17 -13 -21 -13
-5 0 -24 -12 -43 -27 -19 -16 -47 -37 -63 -48 -73 -53 -157 -128 -259 -232
-105 -107 -115 -118 -204 -237 -46 -59 -88 -114 -95 -122 -30 -33 -35 -42 -30
-48 4 -3 1 -6 -5 -6 -7 0 -12 -7 -12 -15 0 -8 -4 -15 -8 -15 -4 0 -23 -26 -42
-57 -19 -32 -39 -61 -45 -65 -5 -4 -6 -8 -2 -8 5 0 -1 -13 -12 -28 -33 -47
-167 -316 -186 -372 0 -3 -8 -21 -16 -40 -32 -73 -120 -344 -135 -415 -4 -19
-9 -43 -18 -82 -2 -10 -11 -53 -20 -95 -15 -74 -20 -102 -32 -178 -2 -19 -7
-46 -9 -60 -2 -14 -6 -56 -10 -95 -3 -38 -8 -77 -10 -85 -7 -25 -17 -267 -17
-395 0 -200 15 -442 38 -615 1 -14 6 -52 9 -85 4 -33 12 -68 17 -79 8 -14 7
-17 -3 -11 -7 5 -10 4 -6 -2 4 -6 9 -28 12 -49 4 -22 8 -46 10 -54 2 -8 7 -35
10 -59 4 -23 10 -53 14 -65 5 -11 7 -31 6 -43 -1 -13 2 -23 7 -23 5 0 7 -4 4
-9 -3 -5 -2 -22 4 -37 5 -16 11 -42 14 -59 2 -16 14 -68 26 -115 11 -47 23
-94 25 -105 3 -11 13 -50 24 -88 11 -37 20 -70 20 -72 3 -32 151 -478 196
-590 18 -44 36 -89 40 -100 5 -11 7 -23 7 -27 -1 -5 3 -8 10 -8 6 0 9 -3 5 -6
-3 -3 10 -43 30 -87 19 -45 36 -86 37 -92 11 -43 169 -375 233 -488 18 -33 33
-65 33 -73 0 -8 5 -14 10 -14 6 0 15 -11 19 -23 5 -13 28 -54 50 -91 23 -36
41 -71 41 -76 0 -6 4 -10 8 -10 5 0 16 -15 25 -32 18 -36 39 -70 47 -78 3 -3
32 -45 64 -95 33 -49 79 -116 103 -148 24 -31 43 -62 43 -67 0 -6 5 -10 10
-10 6 0 10 -6 10 -14 0 -8 3 -16 8 -18 4 -2 36 -43 72 -93 73 -103 79 -109
103 -136 9 -10 17 -23 17 -27 0 -5 13 -21 30 -37 16 -16 30 -32 30 -36 0 -5
10 -19 23 -32 12 -12 46 -51 76 -85 135 -157 257 -266 436 -388 29 -19 189
-100 230 -115 46 -17 122 -38 155 -43 9 -1 20 -4 25 -7 30 -16 447 -20 520 -6
22 5 52 9 68 10 15 1 27 4 27 7 0 3 9 6 19 7 11 1 52 12 93 24 40 13 75 23 78
24 11 2 108 39 150 57 25 11 54 24 65 28 50 22 156 64 220 86 39 14 79 29 90
34 17 8 56 19 125 36 8 2 35 8 60 15 58 14 76 17 125 24 22 4 56 9 75 12 19 3
63 6 98 8 35 1 65 5 68 8 4 3 17 2 30 -3 13 -5 24 -6 24 -2 0 10 62 8 78 -2 7
-4 12 -2 12 4 0 6 5 8 12 4 6 -4 37 -8 67 -9 99 -4 249 -24 306 -42 11 -3 29
-7 40 -9 74 -11 282 -84 473 -164 12 -6 32 -14 45 -19 12 -5 36 -14 52 -21
122 -50 326 -105 421 -114 17 -2 35 -6 40 -9 13 -7 392 -2 424 7 14 3 38 9 53
11 58 11 185 58 268 100 72 36 201 115 219 135 3 3 23 18 45 34 55 40 291 279
340 344 21 28 43 52 47 52 4 0 8 5 8 10 0 6 8 19 18 29 22 25 28 32 90 116 28
39 55 75 60 80 4 6 23 33 42 60 19 28 37 52 42 53 4 2 8 10 8 18 0 8 5 14 10
14 6 0 10 7 10 15 0 8 3 15 8 15 4 0 16 16 26 35 11 19 23 35 28 35 4 0 8 6 8
14 0 8 3 16 8 18 4 2 31 39 60 83 28 44 55 85 60 90 19 24 183 308 223 385 24
47 46 87 49 90 9 9 100 200 177 370 11 25 37 86 58 135 20 50 43 104 50 120
25 58 77 190 79 200 1 5 7 19 13 30 6 11 11 22 10 25 -1 9 36 115 43 125 5 6
11 27 15 48 4 20 10 37 14 37 4 0 8 6 8 13 0 6 15 59 32 117 18 58 34 112 36
120 2 8 8 27 14 43 6 15 9 27 6 27 -2 0 2 19 11 41 8 23 16 51 18 63 4 18 16
69 31 126 2 8 4 15 5 15 1 0 3 9 5 20 5 35 16 89 25 125 5 19 11 49 14 65 3
17 12 68 20 115 8 47 17 101 20 120 4 19 8 46 11 60 2 14 7 50 10 80 3 30 9
75 12 100 3 25 7 65 8 90 2 25 4 45 5 45 1 0 4 47 8 105 12 211 6 620 -12 775
-3 22 -8 60 -11 85 -7 67 -15 122 -20 150 -3 14 -8 40 -11 59 -3 18 -8 43 -10
55 -3 11 -7 33 -10 47 -2 14 -18 77 -35 140 -16 63 -31 121 -33 129 -16 63
-91 267 -127 345 -12 28 -23 52 -23 55 -6 38 -216 412 -262 465 -13 15 -24 31
-24 35 0 3 -8 15 -18 26 -10 10 -33 41 -52 69 -19 27 -39 55 -45 61 -5 6 -21
26 -35 44 -92 122 -307 332 -425 415 -15 11 -36 28 -47 38 -10 9 -21 17 -24
17 -5 0 -36 20 -156 102 -15 10 -30 18 -33 18 -3 0 -36 17 -73 38 -96 54 -359
164 -427 178 -5 1 -44 11 -85 23 -41 11 -86 23 -100 25 -14 3 -47 10 -74 16
-26 5 -52 7 -57 4 -5 -3 -9 -1 -9 3 0 5 -17 10 -37 12 -21 1 -54 5 -73 7 -80
12 -305 12 -319 1 -8 -7 -16 -10 -18 -8 -3 3 -108 -7 -148 -15 -11 -2 -33 -6
-50 -9 -29 -4 -49 -8 -105 -20 -37 -8 -63 -13 -106 -19 -22 -4 -55 -11 -74
-16 -19 -5 -55 -12 -80 -15 -24 -4 -51 -10 -60 -15 -8 -4 -31 -10 -50 -13 -19
-3 -51 -10 -70 -16 -19 -6 -46 -12 -60 -14 -36 -7 -108 -26 -160 -44 -25 -8
-54 -16 -65 -18 -19 -3 -87 -23 -205 -61 -30 -10 -59 -18 -65 -20 -5 -1 -71
-23 -145 -49 -74 -26 -141 -47 -147 -48 -7 0 -13 -4 -13 -9 0 -4 -6 -8 -14 -8
-8 0 -27 -5 -43 -11 -15 -6 -28 -9 -29 -7 0 2 -8 -3 -16 -10 -13 -11 -28 -8
-84 13 -38 15 -77 31 -86 36 -10 5 -26 9 -36 9 -10 0 -22 3 -25 6 -5 5 -142
56 -182 68 -5 1 -44 13 -85 26 -41 13 -77 24 -80 25 -3 1 -32 9 -65 19 -33 10
-91 27 -130 38 -38 10 -77 21 -85 23 -8 2 -30 8 -48 14 -18 5 -35 10 -37 10
-3 1 -6 1 -7 2 -2 0 -13 2 -25 5 -12 2 -69 15 -125 29 -188 45 -499 103 -520
97 -5 -1 -8 1 -8 6 0 4 -15 8 -33 9 -55 2 -82 6 -92 13 -9 7 -302 10 -308 3z"/>
</g>
</svg>
