<?xml version="1.0" standalone="no"?>
<!DOCTYPE svg PUBLIC "-//W3C//DTD SVG 20010904//EN"
 "http://www.w3.org/TR/2001/REC-SVG-20010904/DTD/svg10.dtd">
<svg version="1.0" xmlns="http://www.w3.org/2000/svg"
 width="700.000000pt" height="700.000000pt" viewBox="0 0 700.000000 700.000000"
 preserveAspectRatio="xMidYMid meet">
<metadata>
Created by potrace 1.11, written by Peter Selinger 2001-2013
</metadata>
<g transform="translate(0.000000,700.000000) scale(0.100000,-0.100000)"
fill="#000000" stroke="none">
<path d="M4782 6982 c-361 -60 -698 -259 -935 -552 -175 -217 -305 -497 -335
-720 -9 -71 -9 -306 0 -316 9 -9 158 -9 219 0 56 8 196 42 224 55 11 5 45 19
75 31 180 72 393 241 550 439 164 205 277 458 321 721 12 68 21 323 13 345 -6
15 -29 15 -132 -3z"/>
<path d="M4708 5315 c-2 -2 -32 -5 -68 -9 -180 -16 -352 -65 -700 -201 -102
-40 -218 -82 -258 -93 -134 -38 -218 -21 -582 116 -239 90 -338 118 -550 157
-54 10 -268 13 -335 5 -70 -9 -133 -19 -160 -25 -140 -30 -313 -98 -439 -172
-364 -214 -651 -578 -799 -1014 -77 -226 -109 -382 -135 -659 -13 -131 -4
-516 13 -610 3 -15 13 -91 19 -140 17 -130 75 -386 132 -580 114 -384 303
-806 509 -1135 379 -607 810 -952 1170 -939 99 3 178 23 390 98 425 151 551
181 760 179 186 -1 220 -9 715 -182 179 -62 276 -83 405 -86 141 -3 260 27
393 101 197 110 434 353 618 634 27 41 51 77 54 80 7 6 93 151 99 165 2 5 14
26 27 46 70 111 237 462 332 697 l50 123 -70 35 c-306 154 -566 410 -713 701
-59 117 -106 251 -121 343 -3 19 -8 38 -10 41 -1 3 -6 28 -9 56 -3 27 -8 60
-10 74 -8 35 -8 275 0 344 16 150 88 423 116 441 5 3 9 13 9 22 0 39 153 279
240 376 95 105 247 236 330 284 25 14 47 27 49 29 12 8 -89 133 -189 234 -201
202 -439 338 -716 409 -109 28 -115 29 -254 46 -54 6 -307 14 -312 9z"/>
</g>
</svg>
