<svg id="Layer_1" data-name="Layer 1" xmlns="http://www.w3.org/2000/svg" viewBox="0 0 147.06 87.54"><defs><style>.cls-1{fill:#ed1c25;}.cls-2{fill:#393d3e;}</style></defs><title>ico</title><path class="cls-1" d="M12.48,59.58,73.79,13,92.9,27.51V19.66H107v.81c0,5.65,0,11.3,0,16.94a1.54,1.54,0,0,0,.7,1.39Q121.18,49,134.59,59.19a1.53,1.53,0,0,1,.45.49l-.54-.23a141.84,141.84,0,0,0-33-11,2.77,2.77,0,0,1-1.07-.5q-13-9.84-25.94-19.72a1,1,0,0,0-1.47,0q-13,9.89-26,19.7a5.17,5.17,0,0,1-2.05.72A140.39,140.39,0,0,0,13.19,59.4l-.65.28-.06-.1"/><path class="cls-2" d="M146.34,74.85Q73.79,53.6,1.25,74.85A136.5,136.5,0,0,1,67.78,54.48a137.2,137.2,0,0,1,78.56,20.37"/></svg>