<svg id="Layer_1" data-name="Layer 1" xmlns="http://www.w3.org/2000/svg" viewBox="0 0 147.06 87.54"><defs><style>.cls-1{fill:#ed1c25;}.cls-2{fill:#fff;}</style></defs><title>logo-white</title><path class="cls-1" d="M12.48,46.58,73.79,0,92.9,14.51V6.66H107v.81c0,5.65,0,11.3,0,16.94a1.54,1.54,0,0,0,.7,1.39Q121.18,36,134.59,46.19a1.53,1.53,0,0,1,.45.49l-.54-.23a141.84,141.84,0,0,0-33-11,2.77,2.77,0,0,1-1.07-.5q-13-9.84-25.94-19.72a1,1,0,0,0-1.47,0q-13,9.88-26,19.7a5.17,5.17,0,0,1-2.05.72A140.39,140.39,0,0,0,13.19,46.4l-.65.28-.06-.1"/><path class="cls-2" d="M146.34,56.85Q73.79,35.6,1.25,56.85A136.5,136.5,0,0,1,67.78,36.48a137.2,137.2,0,0,1,78.56,20.37"/><path class="cls-2" d="M8.87,61.11h4.44l8.84,23H17.6l-1.8-4.74H6.42L4.55,84.11H0Zm2.24,6.1L8,75.1h6.15Z"/><polygon class="cls-2" points="40.42 84.11 34.05 67.2 27.58 84.11 22.93 84.11 31.81 61.11 36.25 61.11 45.09 84.11 40.42 84.11"/><polygon class="cls-2" points="49.97 61.11 54.24 61.11 59.57 77.15 64.95 61.11 69.21 61.11 73.06 84.11 68.83 84.11 66.37 69.58 61.48 84.11 57.63 84.11 52.78 69.58 50.26 84.11 45.99 84.11 49.97 61.11"/><path class="cls-2" d="M87.41,60.53a11.41,11.41,0,0,1,8.39,3.54,12.25,12.25,0,0,1,0,17.13,12,12,0,0,1-17-.1,12.08,12.08,0,0,1,8.58-20.57m0,4.29A7.22,7.22,0,0,0,82,67a7.72,7.72,0,0,0-2.17,5.64,7.34,7.34,0,0,0,2.74,6,7.46,7.46,0,0,0,4.88,1.74,7.13,7.13,0,0,0,5.3-2.25,8.13,8.13,0,0,0,0-11.11,7.23,7.23,0,0,0-5.37-2.27"/><polygon class="cls-2" points="103.42 61.11 107.86 61.11 107.86 69.79 115.53 69.79 115.53 61.11 119.96 61.11 119.96 84.11 115.53 84.11 115.53 74.02 107.86 74.02 107.86 84.11 103.42 84.11 103.42 61.11"/><path class="cls-2" d="M132.68,61.11h4.42L144.5,80h2.56v7.55h-4.24V84.11H127v3.43h-4.24V80h2.54Zm2.25,6.1-5,12.78H140Z"/></svg>