<?xml version="1.0" encoding="utf-8"?>
<!-- Generator: Adobe Illustrator 24.0.0, SVG Export Plug-In . SVG Version: 6.00 Build 0)  -->
<svg version="1.1" id="Layer_1" xmlns="http://www.w3.org/2000/svg" xmlns:xlink="http://www.w3.org/1999/xlink" x="0px" y="0px"
	 viewBox="0 0 113.7 68.6" style="enable-background:new 0 0 113.7 68.6;" xml:space="preserve">
<style type="text/css">
	.st0{fill:#ED1C25;}
	.st1{fill:#393D3E;}
</style>
<path class="st0" d="M9.3,37.1C25.1,25.1,40.9,13,56.7,1c4.9,3.7,9.8,7.5,14.8,11.2V6.2h10.9v0.6c0,4.4,0,8.7,0,13.1
	c0,0.5,0.2,0.8,0.5,1.1c6.9,5.3,13.9,10.5,20.8,15.8c0.1,0.1,0.3,0.2,0.3,0.4c-0.1-0.1-0.3-0.1-0.4-0.2c-8.2-3.9-16.7-6.7-25.5-8.5
	c-0.3-0.1-0.6-0.2-0.8-0.4C70.7,23,64,17.9,57.3,12.8c-0.5-0.3-0.7-0.3-1.1,0C49.5,17.9,42.8,23,36.1,28.1c-0.4,0.3-1,0.4-1.6,0.6
	c-8.6,1.8-16.8,4.5-24.7,8.3C9.6,37,9.5,37.1,9.3,37.1C9.3,37.1,9.3,37.1,9.3,37.1"/>
<path class="st1" d="M112.9,45c-37.5-11-74.9-11-112.3,0c15.8-9.7,33-15,51.5-15.8C73.9,28.3,94.2,33.7,112.9,45"/>
<g>
	<path class="st1" d="M4.7,67.5H0.6V48.1h8.3c2.1,0,3.8,0.7,5.1,2.1c1.2,1.4,1.8,3,1.8,5c0,1.9-0.6,3.5-1.9,4.8s-2.9,2-5,2H4.7V67.5
		z M4.6,58.5h4.2c0.9,0,1.6-0.3,2.1-1c0.5-0.7,0.8-1.5,0.8-2.4c0-0.9-0.3-1.7-0.8-2.4s-1.2-1-2.1-1c0,0-0.7,0-2.1,0H4.6V58.5z"/>
	<path class="st1" d="M30.5,48.1v3.6h-7.7v3.9H30v3.6h-7.2v4.4h7.9v3.8H18.7V48.1H30.5z"/>
	<path class="st1" d="M43.8,57.3l7.8-9.2h1.5v19.4h-4.2V57L44,63.1h-0.5L38.6,57v10.5h-4.2V48.1H36L43.8,57.3z"/>
	<path class="st1" d="M76.2,57.8c0,3-0.9,5.4-2.8,7.2c-1.8,1.9-4.2,2.8-7.2,2.8c-2.7,0-5.1-0.9-7-2.7c-1.9-1.8-2.9-4.2-2.9-7.3
		c0-2.1,0.5-3.9,1.4-5.5c1-1.5,2.2-2.7,3.7-3.4c1.5-0.7,3.1-1.1,4.9-1.1c1.3,0,2.5,0.2,3.7,0.7c1.2,0.4,2.2,1.1,3.1,1.9
		c0.9,0.8,1.7,1.9,2.2,3.2C76,54.8,76.2,56.2,76.2,57.8z M60.6,57.8c0,2,0.5,3.6,1.6,4.6c1.1,1.1,2.5,1.6,4.1,1.6
		c1.6,0,3-0.5,4.1-1.6c1.1-1.1,1.7-2.6,1.7-4.6c0-2-0.6-3.5-1.7-4.6c-1.1-1.1-2.5-1.6-4.1-1.6c-1.6,0-3,0.5-4.1,1.6
		S60.6,55.9,60.6,57.8z"/>
	<path class="st1" d="M95.3,67.5h-4.2v-8.2h-7.4v8.2h-4.1V48.1h4.1v7.4h7.4v-7.4h4.2V67.5z"/>
	<path class="st1" d="M103.3,51.7h-5.2v-3.6h14.3v3.6h-5.1v15.8h-4V51.7z"/>
</g>
</svg>
