<?xml version="1.0" encoding="utf-8"?>
<svg version="1.1" id="Слой_1" xmlns="http://www.w3.org/2000/svg" xmlns:xlink="http://www.w3.org/1999/xlink" x="0px" y="0px"
	 viewBox="0 0 909 658" style="enable-background:new 0 0 909 658;" xml:space="preserve">
<title></title>
	<path d="M837,261H222.6l147.8-147.8C383,100.6,389,85.5,389,69c0-31.5-26-64-64-64c-17,0-31.8,6.2-44.2,18.6L26.2,278.2
	C15.7,288.7,5,301.7,5,325s8.9,34.6,20.7,46.3l255.2,255.1C293.2,638.8,308,645,325,645c38,0,64-32.5,64-64c0-16.5-6-31.6-18.6-44.2
	L222.6,389H837c35.3,0,64-28.7,64-64S872.3,261,837,261z"/>
</svg>
