<svg id="Layer_1" data-name="Layer 1" xmlns="http://www.w3.org/2000/svg" viewBox="0 0 52 54.04"><defs><style>.cls-1{fill:#6e6e6e;}</style></defs><title>calc</title><path class="cls-1" d="M4.48,29.22H25.24V23.05H4.48Zm1-5.17H24.24v4.17H5.48Z"/><path class="cls-1" d="M25.49,29.47H4.23V22.8H25.49ZM4.73,29H25V23.3H4.73Zm19.76-.5H5.23V23.8H24.49ZM5.73,28H24V24.3H5.73Z"/><path class="cls-1" d="M4.48,36.2H10V32.11H4.48Zm1-3.09H9V35.2H5.48Z"/><path class="cls-1" d="M10.28,36.45h-6V31.86h6ZM4.73,36h5V32.36h-5Zm4.55-.5h-4V32.86h4ZM5.73,35h3V33.36h-3Z"/><path class="cls-1" d="M12.06,36.2H17.6V32.11H12.06Zm1-3.09H16.6V35.2H13.06Z"/><path class="cls-1" d="M17.85,36.45h-6V31.86h6ZM12.31,36h5V32.36h-5Zm4.54-.5h-4V32.86h4ZM13.31,35h3V33.36h-3Z"/><path class="cls-1" d="M19.64,36.2h5.54V32.11H19.64Zm1-3.09h3.54V35.2H20.64Z"/><path class="cls-1" d="M25.43,36.45h-6V31.86h6ZM19.89,36h5V32.36h-5Zm4.54-.5h-4V32.86h4ZM20.89,35h3V33.36h-3Z"/><path class="cls-1" d="M4.48,42.37H10V38.29H4.48Zm1-3.08H9v2.08H5.48Z"/><path class="cls-1" d="M10.28,42.62h-6V38h6Zm-5.55-.5h5V38.54h-5Zm4.55-.5h-4V39h4Zm-3.55-.5h3V39.54h-3Z"/><path class="cls-1" d="M12.06,42.37H17.6V38.29H12.06Zm1-3.08H16.6v2.08H13.06Z"/><path class="cls-1" d="M17.85,42.62h-6V38h6Zm-5.54-.5h5V38.54h-5Zm4.54-.5h-4V39h4Zm-3.54-.5h3V39.54h-3Z"/><path class="cls-1" d="M4.48,48.54H10V44.46H4.48Zm1-3.08H9v2.08H5.48Z"/><path class="cls-1" d="M10.28,48.79h-6V44.21h6Zm-5.55-.5h5V44.71h-5Zm4.55-.5h-4V45.21h4Zm-3.55-.5h3V45.71h-3Z"/><path class="cls-1" d="M12.06,48.54H17.6V44.46H12.06Zm1-3.08H16.6v2.08H13.06Z"/><path class="cls-1" d="M17.85,48.79h-6V44.21h6Zm-5.54-.5h5V44.71h-5Zm4.54-.5h-4V45.21h4Zm-3.54-.5h3V45.71h-3Z"/><path class="cls-1" d="M19.64,48.54h5.54V38.27H19.64Zm1-9.27h3.54v8.27H20.64Z"/><path class="cls-1" d="M25.43,48.79h-6V38h6Zm-5.54-.5h5V38.52h-5Zm4.54-.5h-4V39h4Zm-3.54-.5h3V39.52h-3Z"/><path class="cls-1" d="M4.4,19.12H3.47a2.11,2.11,0,0,0-2.13,2.09V50.57a2.11,2.11,0,0,0,2.13,2.09H26.25a1.9,1.9,0,0,0,.25,0h8.65l7.57-7.56V1.72H4.4ZM3.47,51.66a1.11,1.11,0,0,1-1.13-1.09V21.21a1.11,1.11,0,0,1,1.13-1.09H26.25a1.11,1.11,0,0,1,1.13,1.09V50.57a1.11,1.11,0,0,1-1.13,1.09ZM14.68,19.12v-7.7h5.4v7.7Zm6.4-7.7h5.41v7.72l-.24,0H21.08Zm6.41,8.09V11.42h5.4V26.8H28.38V21.21A2.08,2.08,0,0,0,27.49,19.51Zm6.4-8.09H39V26.8H33.89Zm5.15-1H33.89v-5H39Zm-6.15,0h-5.4v-5h5.4Zm-6.4,0H21.08v-5h5.41Zm-6.41,0h-5.4v-5h5.4Zm-6.4,0H8.1v-5h5.58Zm-5.58,1h5.58v7.7H8.1ZM35.28,51.09V45.36H41ZM41.72,2.72V44.36H34.28v7.27H28.07a2,2,0,0,0,.31-1.06V27.8H40V4.4H7.1V19.12H5.4V2.72Z"/><path class="cls-1" d="M26.25,52.91H3.47a2.36,2.36,0,0,1-2.38-2.34V21.21a2.36,2.36,0,0,1,2.38-2.34h.68V1.47H43v43.7l-7.71,7.71H26.5ZM3.47,19.37a1.86,1.86,0,0,0-1.88,1.84V50.57a1.86,1.86,0,0,0,1.88,1.84H26.25l.15,0h8.65L42.47,45V2H4.65v17.4ZM26.25,51.91H3.47a1.36,1.36,0,0,1-1.38-1.34V21.21a1.36,1.36,0,0,1,1.38-1.34H26.25a1.36,1.36,0,0,1,1.38,1.34V50.57A1.36,1.36,0,0,1,26.25,51.91ZM3.47,20.37a.86.86,0,0,0-.88.84V50.57a.86.86,0,0,0,.88.84H26.25a.86.86,0,0,0,.88-.84V21.21a.86.86,0,0,0-.88-.84ZM34.53,51.88h-6.9l.23-.38a1.76,1.76,0,0,0,.27-.93v-23H39.79V4.65H7.35V19.37H5.15V2.47H42V44.61H34.53Zm-6.06-.5H34V44.11h7.44V3H5.65v15.9h1.2V4.15H40.29v23.9H28.63V50.57A2.09,2.09,0,0,1,28.47,51.38ZM35,51.7V45.11h6.59Zm.5-6.09v4.88l4.88-4.88Zm3.76-18.56H33.64V11.17h5.65Zm-5.15-.5h4.65V11.67H34.14Zm-1,.5h-5V21.21a1.81,1.81,0,0,0-.79-1.49l-.1-.08V11.17h5.9Zm-4.51-.5h4V11.67h-4.9v7.72a2.33,2.33,0,0,1,.89,1.82Zm-1.89-7.13-.35,0H20.83v-8.2h5.91Zm-5.41-.55h4.91v-7.2H21.33Zm-1,.5h-5.9v-8.2h5.9Zm-5.4-.5h4.9v-7.2h-4.9Zm-1,.5H7.85v-8.2h6.08Zm-5.58-.5h5.08v-7.2H8.35Zm30.94-8.2H33.64V5.15h5.65Zm-5.15-.5h4.65V5.65H34.14Zm-1,.5h-5.9V5.15h5.9Zm-5.4-.5h4.9V5.65h-4.9Zm-1,.5H20.83V5.15h5.91Zm-5.41-.5h4.91V5.65H21.33Zm-1,.5h-5.9V5.15h5.9Zm-5.4-.5h4.9V5.65h-4.9Zm-1,.5H7.85V5.15h6.08Zm-5.58-.5h5.08V5.65H8.35Z"/><path class="cls-1" d="M50.42,13.32h0l0-.06h0l-3.13-8-3.17,8h0V49.65h0a3.14,3.14,0,0,0,6.28,0h0Zm-1,31H45.08V14.24h4.34Zm-4.34,4.29V45.36h4.34v3.29ZM47.45,8.38h-.32l.16-.4Zm-.72,1h1.11l1.5,3.86H45.2Zm.52,42.29a2.11,2.11,0,0,1-2.14-2h4.28A2.11,2.11,0,0,1,47.25,51.67Z"/><path class="cls-1" d="M47.25,52.92a3.39,3.39,0,0,1-3.38-3h0l0-.25V13H44L47.3,4.55,50.59,13h.08v.23l.1.23-.1,0V49.9h-.05A3.38,3.38,0,0,1,47.25,52.92Zm-2.92-3.48,0,.2a2.89,2.89,0,0,0,5.78,0l0-.24V13.29L47.29,5.92l-3,7.45Zm2.92,2.48a2.34,2.34,0,0,1-2.39-2.26V49.4h4.79v.26A2.35,2.35,0,0,1,47.25,51.92Zm-1.87-2a1.9,1.9,0,0,0,3.73,0Zm4.29-1H44.83V45.11h4.84Zm-4.34-.5h3.84V45.61H45.33Zm4.34-3.79H44.83V14h4.84Zm-4.34-.5h3.84V14.49H45.33Zm4.38-30.62H44.83l1.73-4.36H48ZM45.56,13H49L47.67,9.63H46.9Zm2.25-4.36H46.76l.53-1.33Z"/></svg>