<?xml version="1.0" ?><!DOCTYPE svg  PUBLIC '-//W3C//DTD SVG 1.0//EN'  'http://www.w3.org/TR/2001/REC-SVG-20010904/DTD/svg10.dtd'><svg enable-background="new 0 0 24 24" id="Layer_1" version="1.0" viewBox="0 0 24 24" xml:space="preserve" xmlns="http://www.w3.org/2000/svg" xmlns:xlink="http://www.w3.org/1999/xlink"><path d="M18,2H6C4.9,2,4,2.9,4,4v16c0,1.1,0.9,2,2,2h12c1.1,0,2-0.9,2-2V4C20,2.9,19.1,2,18,2z M18,8H6V4h12V8z M9,12H7v-2h2V12z   M13,12h-2v-2h2V12z M9,16H7v-2h2V16z M13,16h-2v-2h2V16z M9,20H7v-2h2V20z M13,20h-2v-2h2V20z M17,12h-2v-2h2V12z M17,16h-2v-2h2  V16z M17,20h-2v-2h2V20z"/><rect height="2" width="2" x="15" y="5"/></svg>