<svg id="Layer_1" data-name="Layer 1" xmlns="http://www.w3.org/2000/svg" viewBox="0 0 50.56 35.31"><defs><style>.cls-1{fill:#6e6e6e;}</style></defs><title>card</title><path class="cls-1" d="M47.06,34.09H3.5A2.11,2.11,0,0,1,1.38,32V3.36A2.11,2.11,0,0,1,3.5,1.27H47.06a2.11,2.11,0,0,1,2.13,2.09V32A2.11,2.11,0,0,1,47.06,34.09ZM3.5,2.27A1.11,1.11,0,0,0,2.38,3.36V32A1.11,1.11,0,0,0,3.5,33.09H47.06A1.11,1.11,0,0,0,48.19,32V3.36a1.11,1.11,0,0,0-1.13-1.09Z"/><path class="cls-1" d="M47.06,34.34H3.5A2.36,2.36,0,0,1,1.13,32V3.36A2.36,2.36,0,0,1,3.5,1H47.06a2.36,2.36,0,0,1,2.38,2.34V32A2.36,2.36,0,0,1,47.06,34.34ZM3.5,1.52A1.86,1.86,0,0,0,1.63,3.36V32A1.85,1.85,0,0,0,3.5,33.84H47.06A1.86,1.86,0,0,0,48.94,32V3.36a1.86,1.86,0,0,0-1.88-1.84ZM47.06,33.34H3.5A1.36,1.36,0,0,1,2.13,32V3.36A1.36,1.36,0,0,1,3.5,2H47.06a1.36,1.36,0,0,1,1.38,1.34V32A1.36,1.36,0,0,1,47.06,33.34ZM3.5,2.52a.86.86,0,0,0-.87.84V32a.86.86,0,0,0,.87.84H47.06a.86.86,0,0,0,.88-.84V3.36a.86.86,0,0,0-.88-.84Z"/><path class="cls-1" d="M17,13.8H6.49a.88.88,0,0,1-.89-.88V6.67a.89.89,0,0,1,.89-.88H17a.89.89,0,0,1,.89.88v6.25A.88.88,0,0,1,17,13.8ZM6.6,12.8H16.93v-6H6.6Z"/><path class="cls-1" d="M17,14.05H6.49a1.14,1.14,0,0,1-1.14-1.13V6.67A1.14,1.14,0,0,1,6.49,5.54H17a1.14,1.14,0,0,1,1.14,1.13v6.25A1.14,1.14,0,0,1,17,14.05ZM6.49,6a.64.64,0,0,0-.64.63v6.25a.64.64,0,0,0,.64.63H17a.64.64,0,0,0,.64-.63V6.67A.64.64,0,0,0,17,6Zm10.69,7H6.35V6.54H17.18Zm-10.33-.5h9.83V7H6.85Z"/><path class="cls-1" d="M37.12,29.88a4.11,4.11,0,1,1,4.11-4.11A4.12,4.12,0,0,1,37.12,29.88Zm0-7.22a3.11,3.11,0,1,0,3.11,3.11A3.11,3.11,0,0,0,37.12,22.66Z"/><path class="cls-1" d="M37.12,30.13a4.36,4.36,0,1,1,4.36-4.36A4.36,4.36,0,0,1,37.12,30.13Zm0-8.22A3.86,3.86,0,1,0,41,25.77,3.86,3.86,0,0,0,37.12,21.91Zm0,7.22a3.36,3.36,0,1,1,3.36-3.36A3.37,3.37,0,0,1,37.12,29.13Zm0-6.22A2.86,2.86,0,1,0,40,25.77,2.86,2.86,0,0,0,37.12,22.91Z"/><path class="cls-1" d="M41.84,29.88A4.11,4.11,0,1,1,46,25.77,4.12,4.12,0,0,1,41.84,29.88Zm0-7.22A3.11,3.11,0,1,0,45,25.77,3.12,3.12,0,0,0,41.84,22.66Z"/><path class="cls-1" d="M41.84,30.13a4.36,4.36,0,1,1,4.36-4.36A4.37,4.37,0,0,1,41.84,30.13Zm0-8.22a3.86,3.86,0,1,0,3.86,3.86A3.87,3.87,0,0,0,41.84,21.91Zm0,7.22a3.36,3.36,0,1,1,3.36-3.36A3.37,3.37,0,0,1,41.84,29.13Zm0-6.22a2.86,2.86,0,1,0,2.86,2.86A2.87,2.87,0,0,0,41.84,22.91Z"/><rect class="cls-1" x="4.62" y="24.06" width="5.37" height="1"/><path class="cls-1" d="M10.24,25.31H4.37v-1.5h5.87Zm-5.37-.5H9.74v-.5H4.87Z"/><rect class="cls-1" x="10.83" y="24.06" width="5.37" height="1"/><path class="cls-1" d="M16.45,25.31H10.58v-1.5h5.87Zm-5.37-.5H16v-.5H11.08Z"/><rect class="cls-1" x="17.05" y="24.06" width="5.37" height="1"/><path class="cls-1" d="M22.67,25.31H16.8v-1.5h5.87Zm-5.37-.5h4.87v-.5H17.3Z"/><rect class="cls-1" x="23.27" y="24.06" width="5.37" height="1"/><path class="cls-1" d="M28.89,25.31H23v-1.5h5.87Zm-5.37-.5h4.87v-.5H23.52Z"/><rect class="cls-1" x="4.62" y="28.33" width="8.21" height="1"/><path class="cls-1" d="M13.08,29.58H4.37v-1.5h8.71Zm-8.21-.5h7.71v-.5H4.87Z"/><rect class="cls-1" x="13.68" y="28.33" width="10.58" height="1"/><path class="cls-1" d="M24.51,29.58H13.43v-1.5H24.51Zm-10.58-.5H24v-.5H13.93Z"/><path class="cls-1" d="M12.26,13.27h-1V8.77c0-2.35,2.55-3,3.9-3v1c-.12,0-2.91.06-2.91,2Z"/><path class="cls-1" d="M12.51,13.52H11V8.77c0-2.54,2.71-3.24,4.15-3.25h.25V7h-.25c-.11,0-2.66.05-2.66,1.75Zm-1-.5H12V8.77c0-1.85,2.15-2.18,2.9-2.23V6c-1.3.08-3.4.72-3.4,2.74Z"/><rect class="cls-1" x="6.08" y="8.08" width="5.54" height="1"/><path class="cls-1" d="M11.86,9.33h-6V7.83h6Zm-5.53-.5h5v-.5h-5Z"/><rect class="cls-1" x="6.08" y="10.42" width="5.54" height="1"/><path class="cls-1" d="M11.86,11.67h-6v-1.5h6Zm-5.53-.5h5v-.5h-5Z"/><rect class="cls-1" x="13.86" y="8.08" width="3.48" height="1"/><path class="cls-1" d="M17.59,9.33h-4V7.83h4Zm-3.48-.5h3v-.5h-3Z"/><rect class="cls-1" x="13.86" y="10.42" width="3.48" height="1"/><path class="cls-1" d="M17.59,11.67h-4v-1.5h4Zm-3.48-.5h3v-.5h-3Z"/></svg>