<svg id="Layer_1" data-name="Layer 1" xmlns="http://www.w3.org/2000/svg" viewBox="0 0 46.61 46.61"><defs><style>.cls-1{fill:#6e6e6e;}</style></defs><title>clock</title><path class="cls-1" d="M23.31,5a18.31,18.31,0,1,0,18.3,18.31A18.33,18.33,0,0,0,23.31,5Zm0,35.61a17.31,17.31,0,1,1,17.3-17.3A17.32,17.32,0,0,1,23.31,40.61Z"/><path class="cls-1" d="M23.81,21.08V9h-1V21.08A2.29,2.29,0,0,0,21,23.31a2.32,2.32,0,0,0,.36,1.22L16,29.93l.7.71,5.41-5.41a2.21,2.21,0,0,0,1.22.36,2.28,2.28,0,0,0,.5-4.51Z"/></svg>