<svg id="Layer_1" data-name="Layer 1" xmlns="http://www.w3.org/2000/svg" viewBox="0 0 14.23 17.2"><title>logo-2</title><path d="M9.25,2.88A4,4,0,0,0,10.12.11,3.66,3.66,0,0,0,7.66,1.42,3.75,3.75,0,0,0,6.78,4.1,3.06,3.06,0,0,0,9.25,2.88Z"/><path d="M13.41,6.73a3.08,3.08,0,0,0-.32-.48h0a3.83,3.83,0,0,0-3-1.65H10a12.55,12.55,0,0,0-2.89.74A12.55,12.55,0,0,0,4.23,4.6H4.11a3.83,3.83,0,0,0-3,1.65h0a3.08,3.08,0,0,0-.32.48c-1.11,1.91-.76,4.5.09,6.54a8.73,8.73,0,0,0,.94,1.79c.69,1,1.37,2,2.5,2h.15c1,0,1.38-.62,2.61-.62s1.58.58,2.61.62h.15c1.13,0,1.81-1,2.5-2a9.83,9.83,0,0,0,.94-1.78C14.16,11.24,14.52,8.64,13.41,6.73Z"/></svg>