<svg id="Layer_1" data-name="Layer 1" xmlns="http://www.w3.org/2000/svg" viewBox="0 0 43.9 44.72"><defs><style>.cls-1{fill:#6e6e6e;}</style></defs><title>pay</title><path class="cls-1" d="M35.71,13.29H31.83l.08-5.66a2.73,2.73,0,0,0-1-2.27,1.94,1.94,0,0,0-1.79-.25L7.46,12.16A4.15,4.15,0,0,0,5,16.05h0a3,3,0,0,0,0,.43V36.53A3.19,3.19,0,0,0,8.2,39.72H35.71a3.19,3.19,0,0,0,3.19-3.19v-20A3.19,3.19,0,0,0,35.71,13.29ZM7.77,13.11l21.67-7a1,1,0,0,1,.89.11,1.78,1.78,0,0,1,.58,1.45l-.08,5.67H8.2a3.32,3.32,0,0,0-1.06.19A1.86,1.86,0,0,1,7.77,13.11ZM37.9,36.53a2.2,2.2,0,0,1-2.19,2.19H8.2A2.19,2.19,0,0,1,6,36.53v-20A2.19,2.19,0,0,1,8.2,14.29H35.71a2.2,2.2,0,0,1,2.19,2.19Z"/><path class="cls-1" d="M32.38,24.46a2,2,0,1,0,2,2A2,2,0,0,0,32.38,24.46Z"/></svg>