<svg id="Слой_1" data-name="Слой 1" xmlns="http://www.w3.org/2000/svg" viewBox="0 0 48 48"><title>phone</title><g id="_1-Call" data-name="1-Call"><path d="M43.09,35.73l-6.48-4.52a5,5,0,0,0-7,1.24l-1.5,2.15a55.7,55.7,0,0,1-8-6.73,55.66,55.66,0,0,1-6.73-8l2.16-1.51a5,5,0,0,0,1.24-7L12.27,4.91A5,5,0,0,0,8.18,2.75,4.73,4.73,0,0,0,6.56,3a9.42,9.42,0,0,0-1.69.82L4,4.49a6.89,6.89,0,0,0-.63.57A9,9,0,0,0,1,9.16c-1.86,7,2.76,17.56,11.5,26.3,7.34,7.34,16.16,11.9,23,11.9h0a12.73,12.73,0,0,0,3.29-.4,9,9,0,0,0,4.1-2.3,8.27,8.27,0,0,0,.6-.67l.63-.9A9.21,9.21,0,0,0,45,41.45,4.92,4.92,0,0,0,43.09,35.73Z"/><path d="M39.76,8.24A25,25,0,0,0,23.65,1a1,1,0,0,0-.13,2A23,23,0,0,1,45,24.48a1,1,0,0,0,1,.93h.07A1,1,0,0,0,47,24.35,25,25,0,0,0,39.76,8.24Z"/><path d="M23.15,9a17,17,0,0,1,15.9,15.9,1,1,0,0,0,1,.94h.06a1,1,0,0,0,.94-1.06A19,19,0,0,0,23.27,7a1,1,0,1,0-.12,2Z"/><path d="M22.77,14.94A11,11,0,0,1,33.06,25.23a1,1,0,0,0,1,.93h.06a1,1,0,0,0,.94-1.06A13,13,0,0,0,22.9,13a1,1,0,1,0-.13,2Z"/></g></svg>