<svg id="Layer_1" data-name="Layer 1" xmlns="http://www.w3.org/2000/svg" viewBox="0 0 35.3 47.71"><defs><style>.cls-1{fill:#6e6e6e;}</style></defs><title>pin</title><path class="cls-1" d="M17.65,12.1a5.56,5.56,0,1,0,5.56,5.55A5.56,5.56,0,0,0,17.65,12.1Zm0,10.11a4.56,4.56,0,1,1,4.56-4.56A4.56,4.56,0,0,1,17.65,22.21Z"/><path class="cls-1" d="M17.65,5A12.67,12.67,0,0,0,5,17.65C5,24.44,16.74,41.4,17.24,42.12l.41.59.41-.59c.5-.72,12.24-17.68,12.24-24.47A12.66,12.66,0,0,0,17.65,5Zm0,36C15.54,37.83,6,23.44,6,17.65a11.65,11.65,0,0,1,23.3,0C29.3,23.44,19.77,37.83,17.65,41Z"/></svg>