<svg xmlns="http://www.w3.org/2000/svg" viewBox="0 0 17.33 22.84"><defs><style>.cls-1{fill:#333;fill-rule:evenodd;}</style></defs><title>calc</title><g id="Слой_2" data-name="Слой 2"><g id="Слой_1-2" data-name="Слой 1"><path class="cls-1" d="M2.37,0H15a2.38,2.38,0,0,1,2.37,2.37V20.48A2.37,2.37,0,0,1,15,22.84H2.37A2.37,2.37,0,0,1,0,20.48V2.37A2.38,2.38,0,0,1,2.37,0ZM2.28,1.67a.53.53,0,0,0-.53.53V5.56a.53.53,0,0,0,.53.53H15.05a.53.53,0,0,0,.53-.53V2.2a.53.53,0,0,0-.53-.53Zm.89,5.69A1.42,1.42,0,1,0,4.6,8.78,1.42,1.42,0,0,0,3.17,7.36ZM2.3,8.88A.16.16,0,0,0,2.45,9h.46V9.5a.16.16,0,0,0,.16.16h.21a.16.16,0,0,0,.15-.16V9H3.9a.16.16,0,0,0,.15-.16V8.67a.15.15,0,0,0-.15-.15H3.43V8.06a.16.16,0,0,0-.15-.16H3.07a.16.16,0,0,0-.16.16v.46H2.45a.15.15,0,0,0-.15.15v.21ZM6.83,7.36A1.42,1.42,0,1,0,8.26,8.78,1.42,1.42,0,0,0,6.83,7.36ZM6,8.88A.16.16,0,0,0,6.11,9H7.56a.16.16,0,0,0,.15-.16V8.67a.15.15,0,0,0-.15-.15H6.11A.15.15,0,0,0,6,8.67v.21Zm4.53-1.52a1.42,1.42,0,1,0,1.43,1.42,1.42,1.42,0,0,0-1.43-1.42Zm-.69.87a.16.16,0,0,0,0,.22l.33.33-.33.33a.15.15,0,0,0,0,.21l.15.15a.16.16,0,0,0,.22,0l.32-.32.33.32a.16.16,0,0,0,.22,0l.15-.15a.14.14,0,0,0,0-.21l-.33-.33.33-.33a.16.16,0,0,0,0-.22L11,8.09a.16.16,0,0,0-.22,0l-.33.32-.32-.32a.16.16,0,0,0-.22,0l-.15.14Zm4.35-.87a1.42,1.42,0,1,0,1.43,1.42,1.42,1.42,0,0,0-1.43-1.42Zm0,.52a.21.21,0,1,0,0,.42.21.21,0,1,0,0-.42Zm-.87,1a.15.15,0,0,0,.15.15h1.44A.16.16,0,0,0,15,8.88V8.67a.16.16,0,0,0-.16-.16H13.43a.16.16,0,0,0-.15.16v.21Zm.87.37a.22.22,0,0,0-.21.22.21.21,0,0,0,.21.21.21.21,0,0,0,.22-.21.22.22,0,0,0-.22-.22ZM3.17,11A1.43,1.43,0,1,0,4.6,12.44,1.43,1.43,0,0,0,3.17,11Zm3.66,0a1.43,1.43,0,1,0,1.43,1.43A1.43,1.43,0,0,0,6.83,11Zm3.66,0a1.43,1.43,0,1,0,1.43,1.43A1.43,1.43,0,0,0,10.49,11Zm3.66,0a1.43,1.43,0,1,0,1.43,1.43A1.43,1.43,0,0,0,14.15,11Zm-11,3.66A1.43,1.43,0,1,0,4.6,16.09a1.43,1.43,0,0,0-1.43-1.42Zm3.66,0a1.43,1.43,0,1,0,1.43,1.42,1.43,1.43,0,0,0-1.43-1.42Zm3.66,0a1.43,1.43,0,1,0,1.43,1.42,1.43,1.43,0,0,0-1.43-1.42ZM3.17,18.33A1.42,1.42,0,1,0,4.6,19.75a1.42,1.42,0,0,0-1.43-1.42Zm3.66,0a1.42,1.42,0,1,0,1.43,1.42,1.42,1.42,0,0,0-1.43-1.42Zm3.66,0a1.42,1.42,0,1,0,1.43,1.42,1.42,1.42,0,0,0-1.43-1.42Zm2.24,2.53a.31.31,0,0,0,.31.31h2.22a.32.32,0,0,0,.32-.31V15a.31.31,0,0,0-.32-.31H13a.31.31,0,0,0-.31.31v5.87Zm.55-2.39a.16.16,0,0,0,.15.16h1.44a.16.16,0,0,0,.16-.16v-.21a.16.16,0,0,0-.16-.15H13.43a.15.15,0,0,0-.15.15v.21Zm0-.88a.16.16,0,0,0,.15.16h1.44a.16.16,0,0,0,.16-.16v-.21a.16.16,0,0,0-.16-.15H13.43a.15.15,0,0,0-.15.15Z"/></g></g></svg>