<?xml version="1.0" encoding="utf-8"?>
<!-- Generator: Adobe Illustrator 24.0.0, SVG Export Plug-In . SVG Version: 6.00 Build 0)  -->
<svg version="1.1" id="Capa_1" xmlns="http://www.w3.org/2000/svg" xmlns:xlink="http://www.w3.org/1999/xlink" x="0px" y="0px"
	 viewBox="0 0 512 436" style="enable-background:new 0 0 512 436;" xml:space="preserve">
<g>
	<path d="M248.2,121.3l0,110.4c0,5.9,2.3,11.4,6.5,15.6l78.9,78.9l31.2-31.2l-72.4-72.4l0-101.2L248.2,121.3L248.2,121.3z"/>
	<path d="M285,3.5c-66.2,0-127.5,30-168.3,82.2l-4.5,5.8l34.8,27.2l4.5-5.8c32.4-41.4,81-65.2,133.5-65.2
		c93.4,0,169.3,76,169.3,169.3s-76,169.3-169.3,169.3c-79.9,0-148-55.2-165.1-132.5H185l-91.4-91.4L2.2,253.8h72.7
		c8.4,47.9,33,91.7,69.8,123.9c38.8,34,88.6,52.8,140.2,52.8c117.7,0,213.5-95.8,213.5-213.5S402.7,3.5,285,3.5z"/>
</g>
</svg>
