<?xml version="1.0" encoding="utf-8"?>
<!-- Generator: Adobe Illustrator 24.0.0, SVG Export Plug-In . SVG Version: 6.00 Build 0)  -->
<svg version="1.1" id="Layer_1" xmlns="http://www.w3.org/2000/svg" xmlns:xlink="http://www.w3.org/1999/xlink" x="0px" y="0px"
	 viewBox="0 0 768 776" style="enable-background:new 0 0 768 776;" xml:space="preserve">
<g>
	<g>
		<path d="M383.8,81.1C271.4,81.1,180,172.5,180,284.9c0,33.7,8.4,67.2,24.5,96.8l168.2,304.1c2.2,4.1,6.5,6.6,11.1,6.6
			c4.6,0,8.9-2.5,11.1-6.6l168.2-304.2c16-29.6,24.4-63,24.4-96.7C587.5,172.5,496.1,81.1,383.8,81.1z M383.8,386.8
			c-56.2,0-101.9-45.7-101.9-101.9S327.6,183,383.8,183c56.2,0,101.9,45.7,101.9,101.9S439.9,386.8,383.8,386.8z"/>
	</g>
</g>
<path d="M383.8,1.8c-212.6,0-385,172.4-385,385c0,212.6,172.4,385,385,385c212.6,0,385-172.4,385-385
	C768.8,174.1,596.4,1.8,383.8,1.8z M383.8,723.5C197.8,723.5,47,572.7,47,386.8S197.8,50,383.8,50s336.7,150.8,336.7,336.7
	S569.7,723.5,383.8,723.5z"/>
</svg>
