<?xml version="1.0" encoding="utf-8"?>
<!-- Generator: Adobe Illustrator 24.0.0, SVG Export Plug-In . SVG Version: 6.00 Build 0)  -->
<svg version="1.1" id="Capa_1" xmlns="http://www.w3.org/2000/svg" xmlns:xlink="http://www.w3.org/1999/xlink" x="0px" y="0px"
	 viewBox="0 0 768 775" style="enable-background:new 0 0 768 775;" xml:space="preserve">
<g>
	<g>
		<path d="M410.6,2.9C294.5-5.2,181.8,39.5,102.5,125.1c-82.7,89.1-118.2,211.1-96,332.3c30.4,166.5,187.2,303.1,356.3,312
			c7,0.4,14,0.6,20.9,0.6c102,0,199.2-39.7,271.9-112.4l11.3-11.3c6.2-6.2,6.2-16.4,0-22.6L644.2,601c-6.2-6.2-16.4-6.2-22.6,0
			l-11.3,11.3c-69.7,69.7-166.5,102.9-265.3,91.4C204.3,687.3,87.5,573.6,67.4,433.4c-14-97,15.9-193.6,82-264.8
			C215.6,97.3,308.7,60.2,406.3,66.8C567.6,77.8,704,228.7,704,396.4V450c0,26.5-21.5,48-48,48h-48v-7.8c0-21.5-17.3-39.1-38.7-39.1
			c-26.7,0-52.9-4.1-77.7-12.3c-13.5-4.7-30.4-0.3-38.4,7.9l-47.6,35.9c-54.8-29.6-89.1-63.9-118.3-118.2l34.5-45.9
			c10.4-10.4,14.1-25.6,9.7-39.9c-8.2-24.9-12.4-51.1-12.3-77.9c0-21.5-17.7-38.7-39.1-38.7h-80.9c-21.3,0-39.1,17.1-39.1,38.4
			c-0.4,226,183.6,410,409.7,409.6c21.3,0,38.4-17.8,38.4-39.1V562h48c61.9,0,112-50.1,112-112v-53.6C768,182,604.3,16.1,410.6,2.9z
			"/>
	</g>
</g>
</svg>
