<?xml version="1.0" encoding="utf-8"?>
<svg version="1.1" id="phone" xmlns="http://www.w3.org/2000/svg" xmlns:xlink="http://www.w3.org/1999/xlink" x="0px" y="0px"
	 viewBox="0 0 22.5 26.8" style="enable-background:new 0 0 22.5 26.8;" xml:space="preserve">
<title>phone</title>
<g id="phone-1">
		<path class="st0" d="M16.6,26.7c-5.1-1-9.6-4-12.5-8.2C0.7,13.8-0.6,8.3,0.3,3.5V3.3l0.1-0.1c0.4-0.4,0.8-0.7,1.2-1
			c1.5-1.1,3.2-1.8,5-2.2C6.8,0,7,0,7.1,0c0.6,0.1,1.5,0.6,1.6,1.2c0.3,1.7,0.7,4,0.9,6.2c0,0.4-0.3,1.5-0.9,1.8l-2.2,0.9
			c-0.1,0.1-0.2,0.2-0.3,0.3c-0.1,0.4-0.1,0.8,0.1,1.2c0.6,1.2,1.3,2.4,2.1,3.6c0.8,1.1,1.7,2.2,2.7,3.1c0.5,0.5,1.2,0.6,1.4,0.4
			l1.6-1.8c0.5-0.4,1.1-0.5,1.7-0.3c0.1,0,0.2,0,0.3,0.1c2,0.7,3.9,1.7,5.6,2.9c0.6,0.6,0.7,1.6,0.4,2.4c-1.2,2-2.9,3.7-5,4.8
			l-0.2,0.1C17.1,26.8,16.6,26.7,16.6,26.7z M1.3,3.9c-0.7,4.9,0.6,9.9,3.6,13.8L5,17.8c2.8,4,7,6.8,11.8,7.8h0.1
			c0.3-0.2,0.7-0.4,1-0.7c1.4-1,2.5-2.2,3.3-3.6c0.1-0.3,0-0.6-0.1-0.9c-1.7-1.1-3.5-2-5.4-2.7c-0.3-0.1-0.5-0.1-0.8,0l-1.5,1.7
			c-0.7,0.8-2.1,0.6-3.1-0.3c-1-1-1.9-2.1-2.8-3.3c-0.8-1.2-1.6-2.4-2.2-3.7c-0.3-0.6-0.4-1.4-0.1-2c0.1-0.4,0.5-0.8,0.9-0.9
			l2.1-0.9c0.1-0.2,0.2-0.4,0.2-0.7C8.4,5.4,8,3.1,7.7,1.4C7.4,1.3,7.2,1.2,7,1.1c0,0-0.1,0-0.1,0c-1.6,0.3-3.2,1-4.5,2
			C2,3.3,1.7,3.6,1.3,3.9L1.3,3.9z"/>
</g>
</svg>