<svg xmlns="http://www.w3.org/2000/svg" viewBox="0 0 22.46 26.75"><defs><style>.cls-1{fill:#333;}</style></defs><title>phone</title><g id="Слой_2" data-name="Слой 2"><g id="Слой_1-2" data-name="Слой 1"><path class="cls-1" d="M16.59,26.67A19.77,19.77,0,0,1,4.08,18.43C.73,13.75-.64,8.34.28,3.5l0-.18.14-.13a14.66,14.66,0,0,1,1.21-1A12.86,12.86,0,0,1,6.61,0a1.34,1.34,0,0,1,.53,0c.59.1,1.49.57,1.61,1.16.32,1.75.72,4,.93,6.19,0,.41-.27,1.54-.89,1.8l-2.15.92a.53.53,0,0,0-.26.3,1.54,1.54,0,0,0,.13,1.17A29.51,29.51,0,0,0,8.65,15.1a28.58,28.58,0,0,0,2.66,3.13c.46.48,1.18.64,1.42.36l1.56-1.75A2.14,2.14,0,0,1,16,16.5a1.19,1.19,0,0,1,.3.08,27,27,0,0,1,5.62,2.89,2.15,2.15,0,0,1,.37,2.37,12.82,12.82,0,0,1-5,4.82l-.16.09-.54-.08ZM1.34,3.89a18.52,18.52,0,0,0,3.59,13.8l.06.1a18.64,18.64,0,0,0,11.78,7.78l.15,0a11.06,11.06,0,0,0,1-.67,11.75,11.75,0,0,0,3.33-3.65,1.43,1.43,0,0,0-.09-.93,26.93,26.93,0,0,0-5.36-2.73,1.82,1.82,0,0,0-.79,0l-1.49,1.69c-.66.77-2.13.63-3.06-.31a28.14,28.14,0,0,1-2.76-3.27,29.45,29.45,0,0,1-2.23-3.69A2.57,2.57,0,0,1,5.34,10a1.58,1.58,0,0,1,.87-.95l2.14-.91a2.36,2.36,0,0,0,.22-.68c-.21-2.1-.6-4.35-.92-6.08A2.39,2.39,0,0,0,7,1.12a.36.36,0,0,0-.12,0,11.81,11.81,0,0,0-4.53,2c-.32.23-.64.49-1,.78Z"/></g></g></svg>