<?xml version="1.0" standalone="no"?>
<!DOCTYPE svg PUBLIC "-//W3C//DTD SVG 20010904//EN"
 "http://www.w3.org/TR/2001/REC-SVG-20010904/DTD/svg10.dtd">
<svg version="1.0" xmlns="http://www.w3.org/2000/svg"
 width="1176.000000pt" height="1176.000000pt" viewBox="0 0 1176.000000 1176.000000"
 preserveAspectRatio="xMidYMid meet">
<metadata>
Created by potrace 1.11, written by Peter Selinger 2001-2013
</metadata>
<g transform="translate(0.000000,1176.000000) scale(0.100000,-0.100000)"
fill="#000000" stroke="none">
<path d="M5884 9367 c-10 -6 -21 -13 -24 -16 -3 -4 -41 -33 -85 -66 -44 -33
-82 -62 -85 -66 -3 -3 -27 -21 -55 -40 -27 -18 -54 -39 -60 -45 -5 -6 -37 -31
-70 -55 -33 -24 -85 -63 -115 -87 -68 -53 -61 -47 -145 -110 -38 -28 -76 -56
-83 -62 -7 -6 -67 -52 -135 -103 -67 -50 -124 -94 -127 -97 -3 -3 -102 -79
-220 -168 -118 -89 -289 -218 -380 -287 -91 -69 -176 -134 -189 -143 -13 -9
-28 -22 -35 -28 -6 -5 -38 -30 -71 -54 -50 -37 -184 -139 -220 -168 -5 -4 -75
-57 -155 -117 -80 -60 -151 -114 -157 -119 -7 -6 -29 -24 -50 -39 -21 -16 -85
-64 -143 -108 -58 -44 -115 -87 -128 -97 -13 -9 -31 -24 -40 -32 -10 -8 -34
-26 -55 -40 -20 -14 -37 -28 -37 -32 0 -5 -4 -8 -10 -8 -5 0 -20 -9 -32 -19
-13 -11 -95 -74 -183 -140 -88 -65 -170 -129 -182 -140 -12 -12 -26 -21 -30
-21 -5 0 -22 -12 -40 -27 -17 -16 -41 -36 -54 -45 -27 -20 -59 -44 -97 -74
-15 -12 -94 -72 -176 -134 -83 -62 -155 -117 -162 -124 -6 -6 -22 -18 -34 -26
-24 -16 -120 -88 -160 -119 -31 -25 -426 -325 -458 -349 -13 -9 -69 -52 -125
-95 -56 -43 -113 -86 -127 -95 -14 -9 -38 -29 -55 -44 -16 -15 -33 -28 -37
-28 -4 0 -19 -11 -34 -25 -36 -34 -21 -31 62 9 81 40 167 80 174 81 3 1 30 12
60 27 30 14 123 53 205 88 83 34 164 69 180 76 42 18 89 36 93 35 1 -1 16 6
32 14 17 9 30 13 30 10 0 -3 11 2 25 11 14 9 25 13 25 9 0 -4 6 -3 13 3 6 5
46 21 87 36 41 14 113 40 160 57 47 17 90 32 95 33 6 2 23 8 38 14 16 7 32 12
38 12 8 0 146 44 179 58 8 3 20 6 25 7 6 0 24 5 40 12 34 12 174 56 191 59 6
1 38 10 70 19 74 22 311 84 344 91 14 3 77 18 140 33 63 16 133 32 155 36 22
5 45 9 50 10 6 2 37 8 70 15 33 7 65 15 70 18 6 4 19 8 30 9 11 2 22 8 23 13
2 6 8 10 13 10 10 0 159 110 187 137 7 7 17 13 21 13 4 0 16 8 27 18 10 9 37
30 59 47 22 16 45 33 50 37 6 4 26 21 46 38 20 16 41 30 47 30 6 0 12 4 14 8
2 5 80 66 173 137 94 70 172 131 175 134 3 3 13 11 22 16 9 6 62 45 118 88 55
42 103 77 106 77 2 0 12 8 22 18 11 9 32 26 48 37 15 11 42 31 59 45 16 14 84
66 150 115 66 49 122 92 125 95 3 3 21 17 40 30 19 14 42 31 50 38 46 40 211
162 219 162 5 0 11 4 13 8 4 10 325 255 353 269 11 6 29 10 40 9 19 -1 114
-66 165 -113 14 -13 30 -23 37 -23 6 0 13 -4 15 -8 2 -5 30 -28 63 -53 33 -24
62 -46 65 -50 3 -3 50 -39 105 -80 97 -72 125 -93 149 -114 6 -5 38 -30 71
-55 33 -24 65 -49 72 -55 7 -5 49 -38 95 -72 163 -123 453 -343 475 -360 32
-25 55 -43 168 -128 55 -42 107 -81 115 -88 8 -6 94 -71 190 -143 96 -73 216
-163 265 -200 110 -84 143 -101 215 -110 19 -3 43 -7 52 -10 10 -3 30 -7 45
-10 16 -3 44 -9 63 -14 19 -5 46 -11 60 -14 14 -3 42 -10 63 -15 20 -5 37 -7
37 -4 0 3 7 0 15 -7 9 -7 18 -10 21 -7 3 3 18 1 33 -4 14 -6 41 -12 60 -15 19
-2 40 -9 48 -15 7 -6 13 -9 13 -6 0 3 15 1 33 -5 17 -5 39 -11 47 -12 9 -1 20
-5 25 -8 6 -3 28 -9 50 -13 45 -9 54 -12 58 -14 1 -2 11 -4 22 -6 11 -3 101
-29 200 -60 99 -30 187 -57 196 -59 36 -9 335 -109 344 -115 6 -4 28 -13 50
-20 211 -67 777 -302 1040 -431 42 -20 56 -19 34 2 -8 8 -99 78 -204 158 -104
79 -202 153 -217 164 -69 55 -92 71 -101 75 -5 2 -17 11 -27 20 -9 9 -27 23
-40 31 -12 8 -28 20 -34 26 -7 6 -63 50 -126 97 -63 48 -126 95 -140 106 -56
43 -176 134 -430 326 -113 85 -216 164 -230 175 -14 11 -56 43 -95 72 -38 29
-74 56 -80 60 -29 24 -190 145 -211 159 -13 9 -38 28 -54 42 -16 15 -34 27
-39 27 -5 0 -11 3 -13 8 -1 4 -37 33 -80 65 -46 35 -81 71 -89 90 -10 24 -13
185 -14 751 l0 721 -562 1 -563 1 0 -41 c-1 -22 -1 -161 -1 -308 0 -148 -2
-268 -6 -268 -5 0 -90 61 -128 92 -5 5 -37 29 -70 54 -33 25 -67 50 -75 57 -9
7 -108 82 -220 167 -236 178 -209 157 -282 215 -31 25 -61 45 -66 45 -6 0 -12
4 -14 8 -3 8 -145 118 -468 360 -69 52 -127 97 -130 101 -3 3 -19 16 -36 27
-24 17 -34 20 -50 11z"/>
<path d="M5677 6474 c-1 -1 -83 -5 -182 -9 -99 -3 -209 -8 -245 -10 -157 -9
-444 -31 -515 -40 -22 -3 -62 -8 -90 -11 -99 -10 -121 -13 -164 -18 -23 -3
-55 -8 -70 -10 -14 -3 -48 -7 -76 -11 -27 -4 -66 -9 -85 -12 -19 -2 -46 -6
-60 -8 -33 -5 -77 -12 -120 -20 -19 -3 -48 -8 -65 -11 -16 -2 -54 -9 -84 -15
-30 -6 -64 -12 -75 -14 -56 -8 -102 -16 -116 -21 -8 -3 -29 -8 -45 -10 -17 -2
-81 -15 -142 -29 -61 -14 -119 -26 -130 -28 -10 -1 -24 -6 -30 -10 -7 -5 -13
-6 -13 -4 0 2 -24 -2 -52 -9 -29 -7 -93 -22 -143 -34 -49 -12 -97 -24 -105
-27 -8 -3 -22 -7 -30 -9 -18 -4 -242 -68 -315 -90 -27 -8 -57 -16 -65 -18 -82
-21 -686 -230 -765 -266 -11 -5 -78 -32 -150 -60 -71 -28 -143 -58 -160 -65
-75 -35 -167 -75 -172 -75 -3 0 -32 -13 -63 -29 -32 -16 -61 -27 -64 -24 -3 4
-6 1 -6 -5 0 -7 -5 -12 -11 -12 -11 0 -219 -97 -264 -122 -45 -26 -140 -72
-147 -70 -3 1 -12 -5 -18 -13 -7 -8 -16 -15 -21 -15 -4 0 -84 -41 -176 -91
-92 -51 -178 -97 -190 -103 -13 -6 -23 -15 -23 -19 0 -5 -4 -6 -9 -3 -5 3 -14
-1 -21 -9 -7 -8 -19 -15 -26 -15 -8 0 -14 -4 -14 -10 0 -5 -4 -10 -9 -10 -5 0
-54 -27 -109 -60 -54 -33 -104 -60 -110 -60 -7 0 -12 -4 -12 -9 0 -5 24 -3 53
5 28 8 84 24 122 34 221 62 315 87 545 146 140 36 264 68 274 70 33 6 159 36
201 47 49 13 41 11 90 21 22 4 76 16 120 26 44 11 94 21 110 24 17 3 40 8 52
11 13 3 33 7 45 10 13 3 37 8 53 10 17 3 37 8 45 10 8 2 29 7 45 9 17 3 73 14
125 25 52 11 106 22 120 25 14 2 63 11 110 20 112 21 138 25 180 32 19 3 53 9
75 14 22 4 47 8 55 8 8 0 26 3 40 6 40 9 72 15 115 21 22 3 65 10 95 15 74 12
100 16 275 40 83 12 161 23 175 25 14 2 48 7 75 10 28 2 59 6 70 9 19 4 81 11
175 21 25 3 65 7 90 10 25 3 65 8 90 10 25 3 61 7 80 10 19 2 64 7 100 10 36
4 85 8 110 11 25 2 72 6 105 9 33 3 83 7 110 10 28 2 91 7 140 10 50 4 110 8
135 11 25 2 92 6 150 9 58 3 132 8 165 10 33 2 134 7 225 11 91 3 208 8 260
10 97 4 114 4 188 1 23 -1 42 0 42 3 0 11 919 0 1205 -15 300 -14 388 -20 525
-30 41 -3 104 -8 140 -10 36 -2 97 -7 135 -10 39 -4 90 -8 115 -10 25 -2 45
-4 45 -5 0 -1 23 -3 50 -4 53 -4 154 -14 220 -22 22 -3 60 -7 85 -9 101 -9
156 -15 178 -20 12 -3 48 -8 80 -10 31 -3 73 -8 92 -11 38 -6 73 -11 135 -18
53 -6 123 -16 160 -22 17 -3 46 -7 65 -9 19 -2 49 -6 65 -9 17 -3 48 -8 70
-11 22 -4 54 -9 70 -12 17 -3 41 -7 55 -9 14 -2 36 -5 50 -7 14 -3 45 -8 70
-11 25 -4 59 -10 75 -13 17 -3 37 -6 45 -8 61 -9 118 -18 135 -22 23 -5 43 -8
100 -17 22 -4 46 -9 54 -12 8 -2 30 -7 50 -10 20 -3 79 -14 131 -24 52 -11
106 -21 120 -24 33 -5 146 -29 295 -62 66 -14 139 -30 162 -35 23 -4 79 -17
125 -28 46 -11 94 -22 108 -25 32 -6 184 -43 234 -57 22 -6 46 -12 55 -14 9
-2 36 -8 61 -14 25 -7 52 -13 60 -15 8 -2 35 -10 60 -17 25 -7 54 -14 65 -16
11 -2 43 -10 70 -18 70 -21 344 -96 364 -100 9 -2 30 -8 46 -15 17 -6 31 -11
33 -11 1 1 3 1 5 0 1 0 9 -2 18 -4 9 -1 27 -6 40 -10 18 -5 16 -2 -9 14 -18
12 -37 21 -42 21 -6 0 -10 4 -10 9 0 5 -8 11 -17 15 -10 3 -31 14 -48 25 -82
51 -241 141 -375 213 -41 23 -97 53 -125 68 -89 49 -100 54 -105 55 -15 3
-146 71 -148 78 -2 4 -8 7 -12 7 -5 0 -60 24 -122 54 -149 71 -212 100 -218
101 -3 1 -32 14 -65 29 -64 29 -107 47 -115 48 -3 0 -16 6 -30 13 -14 7 -36
17 -50 23 -14 5 -41 17 -60 25 -19 8 -100 41 -180 72 -80 31 -154 61 -165 65
-23 10 -165 61 -180 64 -5 2 -17 6 -25 9 -8 4 -80 29 -160 56 -80 26 -152 51
-160 54 -15 6 -155 47 -175 52 -5 1 -17 5 -25 8 -8 4 -24 8 -35 10 -11 2 -27
7 -35 10 -19 8 -213 60 -320 87 -19 5 -62 15 -96 24 -34 8 -74 18 -90 21 -39
8 -59 13 -59 15 0 1 -7 3 -15 5 -8 1 -60 13 -115 25 -97 21 -118 25 -170 34
-14 3 -33 7 -43 10 -9 3 -33 7 -52 10 -19 3 -46 8 -60 11 -71 14 -129 25 -165
30 -69 11 -98 16 -185 30 -47 8 -107 17 -135 20 -27 4 -57 8 -65 10 -8 2 -42
7 -75 10 -33 4 -71 8 -85 10 -14 2 -50 7 -80 10 -30 4 -71 8 -90 11 -19 2 -71
6 -115 10 -44 3 -96 8 -115 10 -104 10 -281 21 -490 30 -135 6 -679 12 -683 8z"/>
<path d="M6850 4530 c-90 -16 -122 -24 -194 -49 -220 -78 -429 -264 -530 -475
-37 -76 -74 -179 -82 -226 -17 -103 -21 -155 -18 -234 3 -89 4 -103 18 -176
20 -102 113 -311 157 -353 10 -10 19 -22 19 -27 0 -15 142 -154 203 -199 79
-57 224 -126 327 -153 159 -43 444 -26 580 34 64 28 75 33 80 38 3 3 28 16 55
30 28 13 58 31 67 40 30 26 47 40 52 40 13 0 103 92 151 154 94 123 162 275
191 426 10 54 12 258 3 315 -16 94 -16 96 -39 165 -64 192 -195 369 -362 491
-37 27 -68 47 -68 43 0 -3 -12 3 -27 13 -53 36 -186 84 -276 100 -54 9 -259
11 -307 3z m203 -334 c17 17 195 -45 264 -92 63 -42 153 -133 153 -153 0 -6 6
-14 13 -18 20 -12 81 -148 91 -203 3 -14 8 -36 11 -50 7 -33 5 -211 -4 -237
-1 -2 -1 -4 -1 -5 2 -12 -45 -128 -72 -179 -35 -67 -153 -194 -203 -219 -17
-8 -37 -19 -45 -25 -8 -7 -49 -22 -90 -35 -326 -101 -669 85 -765 415 -20 67
-26 225 -13 295 5 25 11 56 14 70 3 14 23 62 45 108 79 165 252 296 419 319
14 2 51 5 83 7 32 3 61 7 64 10 4 3 11 1 18 -4 7 -5 15 -7 18 -4z"/>
<path d="M717 4492 c-9 -2 -17 -10 -17 -18 0 -8 -4 -22 -9 -32 -6 -9 -36 -84
-67 -167 -95 -251 -259 -675 -274 -710 -5 -11 -25 -65 -46 -120 -20 -55 -43
-114 -51 -132 -8 -17 -16 -37 -17 -45 -2 -7 -8 -24 -13 -38 -6 -14 -25 -61
-41 -105 -17 -44 -37 -93 -43 -110 -7 -16 -13 -32 -14 -35 -2 -10 -66 -176
-75 -195 -23 -49 -47 -125 -42 -128 4 -2 86 -3 182 -3 l174 1 76 190 75 189
368 1 c203 0 372 -2 375 -5 12 -9 42 -80 42 -99 0 -10 3 -21 7 -25 4 -4 28
-62 54 -129 l46 -122 182 0 c159 -1 181 1 175 15 -3 8 -14 38 -24 65 -10 28
-39 104 -65 170 -25 66 -60 156 -77 200 -17 44 -38 100 -48 125 -10 25 -38 99
-63 165 -25 66 -58 149 -72 185 -15 36 -28 72 -30 80 -1 8 -11 33 -20 55 -20
45 -24 56 -55 140 -12 33 -26 69 -30 80 -5 11 -20 52 -35 90 -14 39 -31 81
-37 95 -6 14 -12 28 -14 33 -1 4 -3 9 -4 12 -1 3 -3 8 -4 13 -1 7 -89 236
-109 285 -7 15 -14 27 -17 28 -14 3 -329 4 -343 1z m193 -536 c0 -5 19 -57 41
-115 23 -58 53 -135 66 -171 14 -36 35 -92 48 -125 27 -69 38 -98 39 -105 1
-3 8 -16 15 -29 9 -15 10 -26 3 -30 -6 -3 -115 -6 -244 -6 -186 1 -232 3 -230
14 1 7 32 88 68 179 36 92 79 203 96 247 17 44 34 85 38 90 3 6 12 29 20 52
12 38 14 41 26 25 7 -9 14 -21 14 -26z"/>
<path d="M2563 4492 c-13 -2 -23 -10 -23 -18 0 -8 -4 -14 -10 -14 -5 0 -9 -3
-8 -7 3 -9 -21 -73 -62 -173 -15 -36 -28 -69 -30 -75 -1 -5 -7 -21 -12 -35 -5
-14 -15 -42 -21 -62 -7 -21 -15 -38 -19 -38 -5 0 -8 -7 -8 -15 0 -13 -71 -202
-103 -275 -6 -14 -11 -27 -12 -30 -1 -3 -5 -14 -10 -25 -47 -119 -177 -464
-180 -476 -2 -9 -8 -25 -14 -35 -10 -17 -74 -182 -76 -194 0 -3 -6 -14 -12
-25 -6 -11 -11 -24 -11 -28 0 -4 -9 -31 -21 -60 -25 -63 -38 -99 -40 -109 -1
-5 -13 -34 -26 -65 -14 -31 -24 -62 -21 -68 3 -8 59 -11 182 -11 l178 1 24 60
c13 33 28 68 33 77 5 10 9 22 9 27 0 5 5 22 12 38 6 15 12 30 13 33 1 3 5 14
10 25 37 90 65 168 65 180 0 8 5 15 10 15 6 0 10 7 10 16 0 9 6 30 14 47 8 18
19 46 24 62 6 17 24 64 40 105 16 41 61 158 99 260 39 102 86 226 105 275 19
50 38 99 42 110 7 17 10 14 23 -20 8 -22 19 -49 24 -60 5 -11 18 -47 30 -80
11 -33 27 -73 34 -90 7 -16 34 -88 60 -160 26 -71 53 -143 60 -160 8 -16 20
-48 28 -70 24 -66 69 -188 167 -446 l93 -245 187 0 c104 1 187 3 185 6 -1 3
-15 37 -30 75 -14 39 -30 79 -35 90 -14 34 -55 140 -56 145 0 3 -6 19 -13 35
-7 17 -17 41 -21 55 -5 14 -17 48 -28 75 -11 28 -43 111 -71 185 -28 74 -54
142 -58 150 -3 8 -7 17 -8 20 -1 3 -5 14 -10 25 -4 11 -30 79 -58 150 -27 72
-75 198 -107 280 -32 83 -77 200 -100 260 -23 61 -55 143 -71 184 -16 40 -29
80 -29 87 0 8 -8 14 -17 15 -53 3 -311 4 -330 1z"/>
<path d="M4014 4492 c-17 -2 -23 -12 -29 -50 -3 -26 -8 -56 -10 -67 -5 -25
-18 -105 -21 -125 -1 -8 -4 -27 -5 -42 -2 -16 -6 -28 -9 -28 -3 0 -6 -12 -6
-27 -2 -24 -43 -271 -59 -353 -2 -13 -7 -42 -10 -65 -3 -22 -8 -47 -10 -55 -2
-8 -7 -33 -10 -55 -3 -23 -7 -52 -10 -65 -3 -14 -7 -36 -9 -50 -3 -14 -8 -41
-10 -60 -3 -19 -8 -46 -10 -60 -3 -14 -10 -52 -15 -85 -6 -33 -13 -69 -15 -80
-5 -25 -18 -104 -22 -130 -2 -11 -5 -31 -8 -45 -20 -100 -58 -337 -60 -370
l-1 -25 163 0 c90 0 166 3 168 7 4 6 33 159 59 313 3 17 10 57 16 90 6 33 13
75 15 93 2 18 6 42 9 53 6 19 8 29 19 107 3 18 7 45 11 60 8 39 12 61 21 122
8 57 10 68 13 73 1 1 4 17 7 36 2 19 7 46 10 60 3 14 7 46 10 71 5 40 23 80
25 54 1 -19 8 -41 31 -104 14 -36 25 -68 26 -72 5 -15 11 -35 47 -142 21 -61
38 -115 40 -120 1 -6 5 -18 8 -26 3 -8 51 -152 107 -320 55 -168 105 -316 111
-330 l10 -26 149 1 c82 0 152 3 155 7 4 4 27 67 51 140 24 73 47 140 51 148 3
8 7 20 9 27 2 12 160 485 171 513 4 8 7 17 8 20 7 28 99 299 101 297 1 -1 5
-18 8 -37 3 -19 10 -57 15 -85 5 -27 12 -70 16 -95 3 -25 8 -52 11 -61 3 -10
6 -31 9 -49 2 -17 6 -43 9 -58 3 -15 8 -43 10 -62 3 -19 8 -46 11 -60 4 -21
27 -153 40 -235 2 -11 6 -36 9 -55 4 -19 8 -48 11 -65 4 -31 25 -149 30 -175
2 -8 6 -38 10 -65 l7 -50 169 -1 170 0 -6 41 c-4 22 -9 54 -11 70 -2 17 -6 41
-9 55 -3 14 -7 41 -10 60 -3 19 -8 42 -10 50 -2 8 -7 35 -10 60 -2 25 -7 56
-10 70 -3 14 -7 41 -10 60 -2 19 -6 45 -9 56 -2 12 -7 39 -10 60 -4 22 -9 55
-13 74 -3 19 -7 42 -8 50 -2 14 -6 36 -21 115 -3 17 -7 46 -10 65 -2 19 -7 51
-11 70 -3 19 -7 42 -9 50 -3 19 -14 85 -21 125 -2 17 -6 41 -9 55 -4 21 -24
145 -39 240 -3 14 -6 34 -8 45 -3 11 -10 54 -17 95 -6 41 -14 86 -16 100 -2
14 -9 57 -16 95 -6 39 -15 72 -19 75 -4 3 -81 5 -171 4 l-163 0 -15 -45 c-8
-24 -18 -48 -21 -54 -4 -5 -10 -26 -14 -45 -4 -19 -11 -39 -15 -45 -4 -5 -11
-26 -15 -45 -4 -19 -11 -39 -14 -45 -6 -8 -27 -69 -37 -110 -14 -55 -299 -884
-302 -880 -4 4 -120 345 -126 370 -1 6 -60 183 -131 395 -71 212 -130 387
-130 390 -1 3 -9 30 -19 60 l-18 55 -152 0 c-83 0 -161 -1 -172 -3z"/>
<path d="M8293 4492 c-14 -2 -23 -11 -25 -25 -2 -12 -2 -425 0 -917 l2 -896
169 1 c93 0 173 4 178 8 4 5 8 183 8 397 1 214 4 392 7 395 3 3 66 6 139 6 74
0 209 0 300 -1 l167 0 0 -396 c0 -217 3 -398 7 -402 7 -7 321 -12 340 -5 7 2
9 313 9 911 -1 499 -2 912 -3 917 -1 6 -67 10 -176 10 l-175 0 -1 -30 c0 -16
0 -173 -1 -347 0 -287 -1 -317 -16 -317 -10 0 -66 0 -127 0 -60 0 -116 0 -122
0 -7 0 -24 -1 -38 -1 -14 0 -33 0 -42 0 -85 0 -150 1 -158 2 -5 0 -14 -1 -20
-2 -5 -1 -28 -2 -50 -1 l-40 1 0 345 c0 301 -2 345 -15 346 -43 3 -298 4 -317
1z"/>
<path d="M10611 4483 c-9 -6 -16 -15 -16 -20 0 -8 -64 -175 -90 -238 -7 -16
-35 -88 -63 -160 -28 -71 -56 -143 -63 -160 -7 -16 -13 -35 -14 -40 -2 -6 -12
-33 -23 -60 -34 -81 -172 -435 -172 -443 -1 -4 -9 -25 -20 -47 -11 -22 -19
-44 -20 -48 0 -5 -6 -23 -14 -40 -14 -30 -77 -194 -89 -228 -4 -14 -21 -16
-106 -15 -83 1 -101 -2 -102 -14 -1 -8 -2 -144 -3 -302 l-1 -288 170 0 170 0
0 128 c-1 70 2 132 6 137 8 11 1243 14 1254 3 4 -4 7 -65 6 -137 l0 -131 169
0 170 0 0 300 c0 233 -3 300 -12 301 -7 1 -54 1 -104 1 l-91 0 -11 32 c-20 58
-43 121 -57 151 -30 67 -168 430 -163 430 1 0 -5 11 -15 25 -9 13 -17 30 -17
37 0 7 -9 32 -19 56 -10 23 -47 114 -81 202 -34 88 -65 169 -70 180 -16 35
-137 349 -144 373 -4 12 -10 22 -14 23 -4 0 -81 2 -171 2 -112 1 -169 -2 -180
-10z m198 -523 c5 -17 11 -34 12 -38 0 -4 6 -16 12 -27 6 -11 12 -23 13 -27 1
-5 3 -10 4 -13 1 -3 3 -8 5 -12 1 -5 7 -21 14 -38 7 -16 24 -59 37 -95 14 -36
29 -74 34 -85 5 -11 24 -56 41 -100 17 -44 36 -91 42 -105 6 -14 11 -27 12
-30 2 -6 2 -5 63 -160 24 -63 50 -128 57 -145 7 -16 17 -43 24 -58 6 -15 11
-31 11 -35 0 -6 -790 -9 -797 -3 -1 1 53 139 92 236 5 11 9 22 10 25 1 3 7 19
14 35 6 17 21 55 32 85 12 30 25 64 30 75 10 23 167 427 194 498 10 26 21 47
25 47 5 0 13 -14 19 -30z"/>
</g>
</svg>
