<svg id="Ebene_1" data-name="Ebene 1" xmlns="http://www.w3.org/2000/svg" viewBox="0 0 610 610"><defs><style>.cls-1{fill:#231f20;}</style></defs><title>logo</title><path class="cls-1" d="M332.41,53.24C372.4.53,428,.27,428,.27s8.27,49.56-31.47,97.31c-42.42,51-90.65,42.64-90.65,42.64S296.84,100.12,332.41,53.24Z"/><path class="cls-1" d="M311,174.93c20.58,0,58.76-28.28,108.47-28.28,85.56,0,119.22,60.88,119.22,60.88s-65.83,33.66-65.83,115.33c0,92.14,82,123.89,82,123.89S497.52,608.11,420.09,608.11c-35.57,0-63.22-24-100.69-24-38.19,0-76.08,24.86-100.76,24.86-70.71,0-160-153.06-160-276.1,0-121,75.61-184.55,146.53-184.55C251.23,148.35,287,174.93,311,174.93Z"/></svg>