<svg xmlns="http://www.w3.org/2000/svg" viewBox="0 0 50 50"><defs><style>.cls-1{fill:none;}</style></defs><title>user</title><g id="Слой_2" data-name="Слой 2"><g id="Layer_1" data-name="Layer 1"><rect class="cls-1" width="50" height="50"/><path d="M46.06,46H5.94L6,44.94c.37-6.07,5.23-8,9.14-9.52,2.35-.92,4.38-1.72,5-3.13.09-1.13.08-2,.08-3v-.47A10,10,0,0,1,18,24.2c-.73-.36-1.58-1.26-1.85-3.47a3.29,3.29,0,0,1,.65-2.51C15.59,13.14,16,9.28,17.88,6.73c1.63-2.15,4.33-3.27,8-3.34,2.43,0,4.24.65,5.18,1.84A5.65,5.65,0,0,1,35,7.83c2,3.3.85,8.44.26,10.42a3.28,3.28,0,0,1,.63,2.48c-.26,2.2-1.14,3.09-1.84,3.45a10.21,10.21,0,0,1-2.16,4.61v.48a28.48,28.48,0,0,0,.08,3c.61,1.41,2.64,2.21,5,3.13,3.89,1.54,8.73,3.46,9.1,9.52ZM8.13,44H43.87c-.75-4-4.28-5.36-7.71-6.72-2.73-1.07-5.3-2.09-6.16-4.4l-.06-.26a30.78,30.78,0,0,1-.1-3.37V27.71l.54-.28a8.21,8.21,0,0,0,1.73-4.11l.09-.82.82-.07c.13,0,.65-.37.83-1.94.1-.8-.29-1.09-.3-1.09L32.92,19l.21-.75c.76-2.31,1.65-6.88.12-9.35a3.83,3.83,0,0,0-2.9-1.74l-.49-.07-.24-.43c-.45-.78-1.84-1.25-3.71-1.25-3,.06-5.19.92-6.44,2.55-1.59,2.1-1.79,5.68-.58,10.36l.19.71-.64.39a1.15,1.15,0,0,0-.29,1.09c.19,1.57.7,1.93.83,1.94l.82.07.09.82a7.84,7.84,0,0,0,1.8,4.12l.54.28,0,.6v.92c0,1.07,0,2.07-.1,3.38l-.06.26c-.86,2.31-3.45,3.33-6.19,4.41C12.43,38.64,8.88,40,8.13,44Z"/></g></g></svg>